<?xml version="1.0" standalone="no"?>
<!DOCTYPE svg PUBLIC "-//W3C//DTD SVG 20010904//EN"
 "http://www.w3.org/TR/2001/REC-SVG-20010904/DTD/svg10.dtd">
<svg version="1.0" xmlns="http://www.w3.org/2000/svg"
 width="259.000000pt" height="232.000000pt" viewBox="0 0 259.000000 232.000000"
 preserveAspectRatio="xMidYMid meet">

<g transform="translate(0.000000,232.000000) scale(0.100000,-0.100000)"
fill="#000000" stroke="none">
<path d="M2125 1786 c-16 -8 -248 -233 -515 -500 -267 -267 -489 -486 -495
-486 -5 0 -111 101 -235 224 -245 244 -257 252 -339 228 -52 -16 -225 -192
-239 -245 -22 -79 -20 -83 371 -475 385 -386 393 -392 472 -378 32 6 115 86
669 642 406 409 636 647 645 669 26 65 10 99 -97 209 -122 124 -165 144 -237
112z"/>
</g>
</svg>
