<?xml version="1.0" encoding="utf-8"?>
<!-- Generator: Adobe Illustrator 27.5.0, SVG Export Plug-In . SVG Version: 6.00 Build 0)  -->
<svg version="1.1" xmlns="http://www.w3.org/2000/svg" xmlns:xlink="http://www.w3.org/1999/xlink" x="0px" y="0px"
	 viewBox="0 0 500 500" style="enable-background:new 0 0 500 500;" xml:space="preserve">
<g id="Background_Simple">
	<g>
		<path style="fill:#7677F4;" d="M449.465,178.185c0,0-52.201-85.51-134.853-119.168C231.96,25.358,171.059,44.462,121.466,89.037
			C68.998,136.198,74.996,218.111,36.4,274.453c-37.104,54.163-8.458,132.84,46.786,159.354
			c53.071,25.471,144.185-0.109,182.704-18.194c38.519-18.085,114.842,16.374,153.123,8.187
			C457.295,415.613,519.066,308.27,449.465,178.185z"/>
		<path style="opacity:0.7;fill:#FFFFFF;" d="M449.465,178.185c0,0-52.201-85.51-134.853-119.168
			C231.96,25.358,171.059,44.462,121.466,89.037C68.998,136.198,74.996,218.111,36.4,274.453
			c-37.104,54.163-8.458,132.84,46.786,159.354c53.071,25.471,144.185-0.109,182.704-18.194
			c38.519-18.085,114.842,16.374,153.123,8.187C457.295,415.613,519.066,308.27,449.465,178.185z"/>
	</g>
</g>
<g id="Plants">
	<g>
		<g>
			<g>
				<g>
					<path style="fill:#263238;" d="M434.58,452.115h3c0.048-9.544,0.392-78.374,0.392-90.482c0-12.955-0.394-62.23-0.397-62.726
						c-0.007-0.824-0.677-1.488-1.5-1.488h-0.012c-0.829,0.007-1.495,0.684-1.488,1.512c0.004,0.496,0.397,49.759,0.397,62.702
						C434.972,373.741,434.627,442.628,434.58,452.115z"/>
				</g>
				<polygon style="fill:#263238;stroke:#263238;stroke-linecap:round;stroke-miterlimit:10;" points="465.844,309.621 
					453.539,299.301 477.386,304.509 457.508,293.347 478.18,289.029 453.539,287.79 480.926,267.15 449.967,282.63 
					467.828,252.068 444.013,279.455 452.348,239.366 436.869,276.677 435.281,235 432.106,277.47 415.215,239.951 426.946,281.043 
					401.682,253.484 423.77,287.393 392.499,265.083 421.786,293.347 388.632,275.233 419.007,295.728 391.533,292.149 
					418.213,299.698 396.849,303.266 419.007,302.476 405.909,311.208 436.869,302.873 				"/>
			</g>
			<g>
				<path style="fill:#263238;" d="M423.461,377.112c0,2.828,0.12,10.755,0.227,17.749c0.088,5.813,0.171,11.302,0.171,12.913
					c0,1.89-0.11,11.2-0.218,20.204c-0.092,7.809-0.18,15.185-0.18,16.495v7.642h3v-7.642c0-1.293,0.087-8.66,0.18-16.459
					c0.107-9.013,0.218-18.333,0.218-20.24c0-1.634-0.083-7.135-0.172-12.959c-0.105-6.982-0.226-14.897-0.226-17.703
					c0-5.292-0.422-10.197-1.22-14.186c-0.612-3.064,0.093-11.018,0.416-13.823c0.095-0.823-0.495-1.567-1.318-1.662
					c-0.82-0.096-1.567,0.495-1.662,1.318c-0.05,0.431-1.208,10.603-0.377,14.755C423.06,367.313,423.461,372.015,423.461,377.112z"
					/>
			</g>
			<path style="fill:none;stroke:#263238;stroke-width:3;stroke-linecap:round;stroke-linejoin:round;stroke-miterlimit:10;" d="
				M425.358,401.805c0,0,1.588-30.265,3.175-34.234c1.588-3.969,2.778-2.779,3.175-7.542c0.397-4.763,0.397-6.748,1.191-8.335
				c0.794-1.588,1.588-4.366,1.588-4.366l0.794-3.175"/>
			<polygon style="fill:#263238;stroke:#263238;stroke-linecap:round;stroke-miterlimit:10;" points="453.539,357.251 
				441.235,346.931 475.767,350.9 445.204,340.977 476.56,335.421 441.235,335.421 468.622,314.781 437.662,330.26 455.524,299.698 
				431.709,327.085 440.044,286.996 424.564,324.307 422.976,282.63 419.801,325.1 407.497,286.599 414.641,328.673 
				392.811,297.316 411.466,335.023 382.833,316.315 409.481,340.977 379.933,328.881 406.703,343.359 378.966,340.964 
				405.909,347.328 387.183,351.597 406.703,350.107 393.604,358.839 424.564,350.503 			"/>
			<polygon style="fill:#263238;stroke:#263238;stroke-linecap:round;stroke-miterlimit:10;" points="454.359,425.305 
				442.055,414.986 476.587,418.955 446.024,409.032 477.38,403.475 442.055,403.475 469.442,382.835 438.482,398.315 
				456.344,367.752 432.529,395.14 440.864,355.051 425.384,392.361 423.796,350.685 420.621,393.155 408.316,354.654 
				415.461,396.727 393.63,365.371 412.286,403.078 383.653,384.37 410.301,409.032 380.753,396.936 407.523,411.413 
				379.786,409.019 406.729,415.383 388.003,419.652 407.523,418.161 394.424,426.893 425.384,418.558 			"/>
		</g>
	</g>
	<g>
		<path style="fill:#7677F4;stroke:#263238;stroke-linecap:round;stroke-linejoin:round;stroke-miterlimit:10;" d="M57.178,391.508
			c0,0-0.231-6.002-2.77-10.157c-2.539-4.155-11.773-7.156-16.621-5.078c-4.848,2.077-7.156,3.463-7.156,3.463
			s7.156,2.077,13.62,6.464C50.715,390.584,57.178,391.508,57.178,391.508z"/>
		<path style="fill:#7677F4;stroke:#263238;stroke-linecap:round;stroke-linejoin:round;stroke-miterlimit:10;" d="M66.873,394.509
			c0,0-5.54-5.309-6.463-12.696c-0.923-7.387,6.925-18.929,6.925-18.929s3.924,7.156,6.233,15.466
			C75.876,386.66,66.873,394.509,66.873,394.509z"/>
		<path style="fill:#7677F4;stroke:#263238;stroke-linecap:round;stroke-linejoin:round;stroke-miterlimit:10;" d="M77.492,392.2
			c0,0-1.385-6.925,1.154-11.773c2.539-4.848,9.234-4.386,15.928-2.308c6.694,2.078,8.772,2.078,8.772,2.078
			s-7.849,5.309-14.543,8.079C82.109,391.046,77.492,392.2,77.492,392.2z"/>
		<g>
			<path style="fill:#263238;" d="M66.935,417.076c-0.33,0-0.597-0.267-0.597-0.597v-33.01c0-0.33,0.267-0.597,0.597-0.597
				c0.33,0,0.597,0.267,0.597,0.597v33.01C67.532,416.809,67.265,417.076,66.935,417.076z"/>
		</g>
		<g>
			<path style="fill:#263238;" d="M69.706,417.076c-0.028,0-0.055-0.002-0.083-0.006c-0.326-0.045-0.555-0.346-0.509-0.673
				c0.114-0.827,2.903-20.384,12.375-31.243c0.216-0.249,0.595-0.274,0.843-0.058c0.248,0.217,0.274,0.594,0.057,0.842
				c-9.236,10.588-12.065,30.423-12.093,30.622C70.256,416.86,69.999,417.076,69.706,417.076z"/>
		</g>
		<g>
			<path style="fill:#263238;" d="M64.165,416.614c-0.002,0-0.005,0-0.007,0c-0.33-0.004-0.593-0.275-0.59-0.604
				c0.002-0.189,0.089-18.979-11.088-27.92c-0.258-0.206-0.298-0.582-0.093-0.839c0.207-0.256,0.582-0.298,0.839-0.093
				c11.636,9.309,11.545,28.073,11.536,28.867C64.758,416.352,64.492,416.614,64.165,416.614z"/>
		</g>
		<g>
			<path style="fill:#263238;" d="M73.398,416.383c-0.051,0-0.104-0.007-0.155-0.021c-0.318-0.085-0.507-0.413-0.421-0.731
				c0.066-0.25,1.687-6.167,5.402-11.276c0.194-0.268,0.568-0.325,0.834-0.132c0.267,0.193,0.325,0.567,0.132,0.833
				c-3.587,4.932-5.2,10.825-5.216,10.884C73.903,416.208,73.662,416.383,73.398,416.383z"/>
			<path style="fill:#7677F4;stroke:#263238;stroke-linecap:round;stroke-linejoin:round;stroke-miterlimit:10;" d="M77.031,407.205
				c0,0-0.231-6.464,2.539-7.387c2.77-0.923,5.31,1.385,7.387,2.77c2.078,1.385,4.386,2.77,4.386,6.925
				c0,4.155-1.616,11.773-1.616,11.773s-2.308-7.156-6.233-10.388C79.57,407.666,77.031,407.205,77.031,407.205z"/>
		</g>
		<g>
			<path style="fill:#263238;" d="M60.009,416.614c-0.253,0-0.487-0.161-0.569-0.415c-0.018-0.056-1.848-5.643-6.033-8.947
				c-0.259-0.204-0.303-0.58-0.099-0.839c0.205-0.257,0.581-0.302,0.838-0.099c4.478,3.535,6.354,9.277,6.432,9.52
				c0.1,0.313-0.073,0.649-0.387,0.75C60.13,416.605,60.07,416.614,60.009,416.614z"/>
			<path style="fill:#7677F4;stroke:#263238;stroke-linecap:round;stroke-linejoin:round;stroke-miterlimit:10;" d="M57.178,409.282
				c0,0,0.923-4.155-1.385-7.156c-2.308-3.001-7.849-2.308-10.619,0.923c-2.77,3.232-6.694,12.927-6.694,12.927
				s5.54-4.386,12.004-4.386C56.947,411.591,57.178,409.282,57.178,409.282z"/>
		</g>
		<polygon style="fill:#FFFFFF;stroke:#263238;stroke-linecap:round;stroke-linejoin:round;stroke-miterlimit:10;" points="
			75.573,452 57.149,452 47.937,421.53 84.785,421.53 		"/>
		
			<rect x="47.834" y="416.477" style="fill:#FFFFFF;stroke:#263238;stroke-linecap:round;stroke-linejoin:round;stroke-miterlimit:10;" width="37.054" height="5.052"/>
	</g>
</g>
<g id="Window">
	<g>
		<rect x="61" y="61" style="fill:#FFFFFF;" width="364" height="271"/>
		<rect x="159.713" y="81.503" style="fill:#EDEDED;" width="265.287" height="250.412"/>
		<rect x="172" y="150.577" style="fill:#B2B2B2;" width="239.333" height="22.667"/>
		<rect x="172" y="114.721" style="fill:#FFFFFF;" width="239.333" height="15.21"/>
		<rect x="65.333" y="150.577" style="fill:#7677F4;" width="88" height="22.667"/>
		<rect x="65.333" y="203.244" style="fill:#B2B2B2;" width="88" height="22.667"/>
		<rect x="65.333" y="255.911" style="fill:#B2B2B2;" width="88" height="22.667"/>
		<g>
			<path style="fill:#7677F4;" d="M371.916,147.07h-26.061c-1.841,0-3.333-1.492-3.333-3.333v-6.863
				c0-1.841,1.492-3.333,3.333-3.333h26.061c1.841,0,3.333,1.492,3.333,3.333v6.863C375.249,145.578,373.757,147.07,371.916,147.07z
				"/>
			<g>
				<path style="fill:#263238;" d="M348.768,142.239l-0.269,1.403h-0.716l1.333-6.964h1.124l1.333,6.964h-0.775l-0.269-1.403
					H348.768z M348.867,141.572h1.552l-0.785-4.019L348.867,141.572z"/>
				<path style="fill:#263238;" d="M355.252,138.359v0.627h-0.735v-0.667c0-0.626-0.249-1.005-0.816-1.005
					c-0.557,0-0.815,0.378-0.815,1.005V142c0,0.627,0.259,1.005,0.815,1.005c0.567,0,0.816-0.378,0.816-1.005v-0.905h0.735v0.866
					c0,1.054-0.497,1.751-1.571,1.751c-1.065,0-1.563-0.697-1.563-1.751v-3.602c0-1.055,0.498-1.751,1.563-1.751
					C354.755,136.608,355.252,137.304,355.252,138.359z"/>
				<path style="fill:#263238;" d="M359.031,138.359v0.627h-0.735v-0.667c0-0.626-0.249-1.005-0.816-1.005
					c-0.557,0-0.815,0.378-0.815,1.005V142c0,0.627,0.259,1.005,0.815,1.005c0.567,0,0.816-0.378,0.816-1.005v-0.905h0.735v0.866
					c0,1.054-0.497,1.751-1.571,1.751c-1.065,0-1.563-0.697-1.563-1.751v-3.602c0-1.055,0.498-1.751,1.563-1.751
					C358.534,136.608,359.031,137.304,359.031,138.359z"/>
				<path style="fill:#263238;" d="M362.213,139.762v0.696h-1.701v2.477h2.09v0.706h-2.865v-6.964h2.865v0.707h-2.09v2.378H362.213z
					"/>
				<path style="fill:#263238;" d="M364.838,136.677c1.095,0,1.563,0.647,1.563,1.702v0.835c0,1.104-0.518,1.682-1.622,1.682h-0.686
					v2.746h-0.775v-6.964H364.838z M364.778,140.199c0.577,0,0.855-0.269,0.855-0.935v-0.925c0-0.637-0.228-0.955-0.796-0.955
					h-0.746v2.815H364.778z"/>
				<path style="fill:#263238;" d="M368.01,143.642v-6.258h-1.283v-0.707h3.333v0.707h-1.283v6.258H368.01z"/>
			</g>
		</g>
		<g>
			<path style="fill:#7677F4;" d="M407.994,147.07h-26.061c-1.841,0-3.333-1.492-3.333-3.333v-6.863
				c0-1.841,1.492-3.333,3.333-3.333h26.061c1.841,0,3.333,1.492,3.333,3.333v6.863C411.328,145.578,409.835,147.07,407.994,147.07z
				"/>
			<g>
				<path style="fill:#263238;" d="M385.691,136.677c1.085,0,1.582,0.657,1.582,1.732v3.512c0,1.064-0.497,1.721-1.582,1.721h-1.631
					v-6.964H385.691z M385.682,142.935c0.558,0,0.826-0.348,0.826-0.985v-3.581c0-0.637-0.268-0.985-0.836-0.985h-0.836v5.551
					H385.682z"/>
				<path style="fill:#263238;" d="M390.476,139.762v0.696h-1.701v2.477h2.089v0.706h-2.865v-6.964h2.865v0.707h-2.089v2.378
					H390.476z"/>
				<path style="fill:#263238;" d="M394.651,138.359v0.627h-0.735v-0.667c0-0.626-0.249-1.005-0.816-1.005
					c-0.557,0-0.815,0.378-0.815,1.005V142c0,0.627,0.259,1.005,0.815,1.005c0.567,0,0.816-0.378,0.816-1.005v-0.905h0.735v0.866
					c0,1.054-0.497,1.751-1.571,1.751c-1.064,0-1.563-0.697-1.563-1.751v-3.602c0-1.055,0.498-1.751,1.563-1.751
					C394.154,136.608,394.651,137.304,394.651,138.359z"/>
				<path style="fill:#263238;" d="M395.357,143.642v-6.964h0.775v6.258h1.99v0.706H395.357z"/>
				<path style="fill:#263238;" d="M399.484,136.677v6.964h-0.775v-6.964H399.484z"/>
				<path style="fill:#263238;" d="M400.965,143.642h-0.696v-6.964h0.985l1.611,5.034v-5.034h0.687v6.964h-0.806l-1.781-5.631
					V143.642z"/>
				<path style="fill:#263238;" d="M406.823,139.762v0.696h-1.701v2.477h2.089v0.706h-2.865v-6.964h2.865v0.707h-2.089v2.378
					H406.823z"/>
			</g>
		</g>
		<rect x="172" y="203.523" style="fill:#B2B2B2;" width="239.333" height="22.667"/>
		<g>
			<path style="fill:#7677F4;" d="M371.916,200.016h-26.061c-1.841,0-3.333-1.492-3.333-3.333v-6.863
				c0-1.841,1.492-3.333,3.333-3.333h26.061c1.841,0,3.333,1.492,3.333,3.333v6.863
				C375.249,198.523,373.757,200.016,371.916,200.016z"/>
			<g>
				<path style="fill:#263238;" d="M348.768,195.185l-0.269,1.403h-0.716l1.333-6.964h1.124l1.333,6.964h-0.775l-0.269-1.403
					H348.768z M348.867,194.518h1.552l-0.785-4.019L348.867,194.518z"/>
				<path style="fill:#263238;" d="M355.252,191.305v0.627h-0.735v-0.667c0-0.626-0.249-1.005-0.816-1.005
					c-0.557,0-0.815,0.378-0.815,1.005v3.681c0,0.627,0.259,1.005,0.815,1.005c0.567,0,0.816-0.378,0.816-1.005v-0.905h0.735v0.866
					c0,1.054-0.497,1.751-1.571,1.751c-1.065,0-1.563-0.697-1.563-1.751v-3.602c0-1.055,0.498-1.751,1.563-1.751
					C354.755,189.554,355.252,190.25,355.252,191.305z"/>
				<path style="fill:#263238;" d="M359.031,191.305v0.627h-0.735v-0.667c0-0.626-0.249-1.005-0.816-1.005
					c-0.557,0-0.815,0.378-0.815,1.005v3.681c0,0.627,0.259,1.005,0.815,1.005c0.567,0,0.816-0.378,0.816-1.005v-0.905h0.735v0.866
					c0,1.054-0.497,1.751-1.571,1.751c-1.065,0-1.563-0.697-1.563-1.751v-3.602c0-1.055,0.498-1.751,1.563-1.751
					C358.534,189.554,359.031,190.25,359.031,191.305z"/>
				<path style="fill:#263238;" d="M362.213,192.708v0.696h-1.701v2.477h2.09v0.706h-2.865v-6.964h2.865v0.707h-2.09v2.378H362.213z
					"/>
				<path style="fill:#263238;" d="M364.838,189.623c1.095,0,1.563,0.647,1.563,1.702v0.835c0,1.104-0.518,1.682-1.622,1.682h-0.686
					v2.746h-0.775v-6.964H364.838z M364.778,193.145c0.577,0,0.855-0.269,0.855-0.935v-0.925c0-0.637-0.228-0.955-0.796-0.955
					h-0.746v2.815H364.778z"/>
				<path style="fill:#263238;" d="M368.01,196.587v-6.258h-1.283v-0.707h3.333v0.707h-1.283v6.258H368.01z"/>
			</g>
		</g>
		<g>
			<path style="fill:#7677F4;" d="M407.994,200.016h-26.061c-1.841,0-3.333-1.492-3.333-3.333v-6.863
				c0-1.841,1.492-3.333,3.333-3.333h26.061c1.841,0,3.333,1.492,3.333,3.333v6.863
				C411.328,198.523,409.835,200.016,407.994,200.016z"/>
			<g>
				<path style="fill:#263238;" d="M385.691,189.623c1.085,0,1.582,0.657,1.582,1.732v3.512c0,1.064-0.497,1.721-1.582,1.721h-1.631
					v-6.964H385.691z M385.682,195.881c0.558,0,0.826-0.348,0.826-0.985v-3.581c0-0.637-0.268-0.985-0.836-0.985h-0.836v5.551
					H385.682z"/>
				<path style="fill:#263238;" d="M390.476,192.708v0.696h-1.701v2.477h2.089v0.706h-2.865v-6.964h2.865v0.707h-2.089v2.378
					H390.476z"/>
				<path style="fill:#263238;" d="M394.651,191.305v0.627h-0.735v-0.667c0-0.626-0.249-1.005-0.816-1.005
					c-0.557,0-0.815,0.378-0.815,1.005v3.681c0,0.627,0.259,1.005,0.815,1.005c0.567,0,0.816-0.378,0.816-1.005v-0.905h0.735v0.866
					c0,1.054-0.497,1.751-1.571,1.751c-1.064,0-1.563-0.697-1.563-1.751v-3.602c0-1.055,0.498-1.751,1.563-1.751
					C394.154,189.554,394.651,190.25,394.651,191.305z"/>
				<path style="fill:#263238;" d="M395.357,196.587v-6.964h0.775v6.258h1.99v0.706H395.357z"/>
				<path style="fill:#263238;" d="M399.484,189.623v6.964h-0.775v-6.964H399.484z"/>
				<path style="fill:#263238;" d="M400.965,196.587h-0.696v-6.964h0.985l1.611,5.034v-5.034h0.687v6.964h-0.806l-1.781-5.631
					V196.587z"/>
				<path style="fill:#263238;" d="M406.823,192.708v0.696h-1.701v2.477h2.089v0.706h-2.865v-6.964h2.865v0.707h-2.089v2.378
					H406.823z"/>
			</g>
		</g>
		<rect x="172" y="256.469" style="fill:#B2B2B2;" width="239.333" height="22.667"/>
		<g>
			<path style="fill:#263238;" d="M178.241,126.773h-0.9l-1.391-6.68v6.692h-0.815v-8.396h1.307l1.379,6.705l1.331-6.705h1.308
				v8.396h-0.888v-6.753L178.241,126.773z"/>
			<path style="fill:#263238;" d="M182.37,125.095l-0.324,1.691h-0.864l1.607-8.396h1.355l1.607,8.396h-0.936l-0.324-1.691H182.37z
				 M182.49,124.291h1.871l-0.947-4.845L182.49,124.291z"/>
			<path style="fill:#263238;" d="M187.313,126.785h-0.839v-8.396h1.188l1.943,6.069v-6.069h0.828v8.396h-0.972l-2.147-6.788
				V126.785z"/>
			<path style="fill:#263238;" d="M192.342,125.095l-0.324,1.691h-0.864l1.607-8.396h1.355l1.607,8.396h-0.936l-0.324-1.691H192.342
				z M192.462,124.291h1.871l-0.947-4.845L192.462,124.291z"/>
			<path style="fill:#263238;" d="M200.152,120.417v0.72h-0.887v-0.767c0-0.755-0.3-1.212-0.983-1.212
				c-0.672,0-0.984,0.456-0.984,1.212v4.438c0,0.756,0.312,1.211,0.984,1.211c0.684,0,0.983-0.456,0.983-1.211v-1.679h-0.864v-0.839
				h1.751v2.471c0,1.271-0.6,2.111-1.895,2.111c-1.283,0-1.883-0.839-1.883-2.111v-4.342c0-1.271,0.6-2.111,1.883-2.111
				C199.552,118.306,200.152,119.146,200.152,120.417z"/>
			<path style="fill:#263238;" d="M204.029,122.108v0.839h-2.051v2.986h2.519v0.852h-3.454v-8.396h3.454v0.852h-2.519v2.867H204.029
				z"/>
			<path style="fill:#263238;" d="M208.433,126.785v-7.544h-1.547v-0.852h4.018v0.852h-1.547v7.544H208.433z"/>
			<path style="fill:#263238;" d="M212.033,125.095l-0.324,1.691h-0.864l1.607-8.396h1.355l1.607,8.396h-0.936l-0.324-1.691H212.033
				z M212.153,124.291h1.871l-0.947-4.845L212.153,124.291z"/>
			<path style="fill:#263238;" d="M219.784,120.405v0.228h-0.888v-0.275c0-0.756-0.288-1.2-0.96-1.2
				c-0.671,0-0.959,0.444-0.959,1.188c0,1.883,2.818,2.063,2.818,4.425c0,1.271-0.611,2.099-1.895,2.099
				c-1.284,0-1.883-0.828-1.883-2.099v-0.479h0.876v0.528c0,0.755,0.312,1.199,0.983,1.199c0.672,0,0.984-0.444,0.984-1.199
				c0-1.871-2.807-2.051-2.807-4.414c0-1.295,0.6-2.099,1.859-2.099C219.184,118.306,219.784,119.134,219.784,120.405z"/>
			<path style="fill:#263238;" d="M222.04,123.14l-0.492,0.828v2.818h-0.935v-8.396h0.935v4.054l2.231-4.054h0.947l-2.123,3.826
				l2.195,4.569h-0.959L222.04,123.14z"/>
			<path style="fill:#263238;" d="M229.096,120.405v0.228h-0.888v-0.275c0-0.756-0.288-1.2-0.959-1.2
				c-0.671,0-0.96,0.444-0.96,1.188c0,1.883,2.819,2.063,2.819,4.425c0,1.271-0.612,2.099-1.895,2.099
				c-1.284,0-1.883-0.828-1.883-2.099v-0.479h0.876v0.528c0,0.755,0.312,1.199,0.984,1.199c0.671,0,0.983-0.444,0.983-1.199
				c0-1.871-2.807-2.051-2.807-4.414c0-1.295,0.6-2.099,1.859-2.099C228.496,118.306,229.096,119.134,229.096,120.405z"/>
		</g>
		<g>
			<path style="fill:#263238;" d="M72.785,126.785v-7.544h-1.547v-0.852h4.018v0.852h-1.547v7.544H72.785z"/>
			<path style="fill:#263238;" d="M76.385,125.095l-0.324,1.691h-0.864l1.607-8.396h1.355l1.607,8.396h-0.936l-0.324-1.691H76.385z
				 M76.505,124.291h1.871l-0.947-4.845L76.505,124.291z"/>
			<path style="fill:#263238;" d="M84.135,120.405v0.228h-0.888v-0.275c0-0.756-0.288-1.2-0.959-1.2c-0.671,0-0.96,0.444-0.96,1.188
				c0,1.883,2.819,2.063,2.819,4.425c0,1.271-0.612,2.099-1.895,2.099c-1.284,0-1.883-0.828-1.883-2.099v-0.479h0.875v0.528
				c0,0.755,0.312,1.199,0.984,1.199c0.671,0,0.983-0.444,0.983-1.199c0-1.871-2.807-2.051-2.807-4.414
				c0-1.295,0.6-2.099,1.859-2.099C83.536,118.306,84.135,119.134,84.135,120.405z"/>
			<path style="fill:#263238;" d="M86.392,123.14l-0.492,0.828v2.818h-0.936v-8.396H85.9v4.054l2.231-4.054h0.947l-2.122,3.826
				l2.195,4.569h-0.96L86.392,123.14z"/>
			<path style="fill:#263238;" d="M93.568,118.39c1.319,0,1.883,0.78,1.883,2.051v1.008c0,1.331-0.624,2.027-1.955,2.027h-0.828
				v3.31h-0.935v-8.396H93.568z M93.496,122.636c0.696,0,1.032-0.324,1.032-1.127v-1.116c0-0.768-0.276-1.151-0.959-1.151h-0.9
				v3.394H93.496z"/>
			<path style="fill:#263238;" d="M96.977,125.095l-0.324,1.691h-0.864l1.607-8.396h1.355l1.607,8.396h-0.936l-0.324-1.691H96.977z
				 M97.097,124.291h1.871l-0.947-4.845L97.097,124.291z"/>
			<path style="fill:#263238;" d="M101.92,126.785h-0.839v-8.396h1.188l1.943,6.069v-6.069h0.828v8.396h-0.972l-2.147-6.788V126.785
				z"/>
			<path style="fill:#263238;" d="M108.988,122.108v0.839h-2.051v2.986h2.519v0.852h-3.454v-8.396h3.454v0.852h-2.519v2.867H108.988
				z"/>
			<path style="fill:#263238;" d="M110.321,126.785v-8.396h0.935v7.544h2.399v0.852H110.321z"/>
		</g>
		<g>
			<path style="fill:#263238;" d="M76.908,165.231h-0.9l-1.391-6.68v6.692h-0.815v-8.396h1.307l1.379,6.705l1.331-6.705h1.308v8.396
				h-0.888v-6.753L76.908,165.231z"/>
			<path style="fill:#263238;" d="M81.037,163.553l-0.324,1.691h-0.864l1.607-8.396h1.355l1.607,8.396h-0.936l-0.324-1.691H81.037z
				 M81.157,162.749h1.871l-0.947-4.845L81.157,162.749z"/>
			<path style="fill:#263238;" d="M85.98,165.244h-0.839v-8.396h1.188l1.943,6.069v-6.069h0.828v8.396h-0.972l-2.147-6.788V165.244z
				"/>
			<path style="fill:#263238;" d="M91.009,163.553l-0.324,1.691h-0.864l1.607-8.396h1.355l1.607,8.396h-0.936l-0.324-1.691H91.009z
				 M91.129,162.749h1.871l-0.947-4.845L91.129,162.749z"/>
			<path style="fill:#263238;" d="M98.819,158.875v0.72h-0.887v-0.768c0-0.755-0.3-1.211-0.983-1.211
				c-0.672,0-0.984,0.456-0.984,1.211v4.438c0,0.756,0.312,1.212,0.984,1.212c0.684,0,0.983-0.456,0.983-1.212v-1.679h-0.864v-0.839
				h1.751v2.471c0,1.271-0.6,2.111-1.895,2.111c-1.283,0-1.883-0.839-1.883-2.111v-4.342c0-1.271,0.6-2.111,1.883-2.111
				C98.219,156.764,98.819,157.604,98.819,158.875z"/>
			<path style="fill:#263238;" d="M102.696,160.566v0.839h-2.051v2.986h2.519v0.852H99.71v-8.396h3.454v0.852h-2.519v2.867H102.696z
				"/>
			<path style="fill:#263238;" d="M107.1,165.244V157.7h-1.547v-0.852h4.018v0.852h-1.547v7.544H107.1z"/>
			<path style="fill:#263238;" d="M110.7,163.553l-0.324,1.691h-0.864l1.607-8.396h1.355l1.607,8.396h-0.935l-0.324-1.691H110.7z
				 M110.82,162.749h1.871l-0.947-4.845L110.82,162.749z"/>
			<path style="fill:#263238;" d="M118.451,158.863v0.228h-0.888v-0.275c0-0.756-0.288-1.2-0.96-1.2c-0.671,0-0.96,0.444-0.96,1.188
				c0,1.883,2.818,2.063,2.818,4.425c0,1.271-0.611,2.099-1.895,2.099c-1.284,0-1.883-0.828-1.883-2.099v-0.48h0.875v0.528
				c0,0.755,0.312,1.199,0.983,1.199c0.672,0,0.984-0.444,0.984-1.199c0-1.871-2.807-2.051-2.807-4.414
				c0-1.295,0.6-2.099,1.859-2.099C117.851,156.764,118.451,157.592,118.451,158.863z"/>
			<path style="fill:#263238;" d="M120.707,161.598l-0.492,0.828v2.818h-0.935v-8.396h0.935v4.054l2.231-4.054h0.947l-2.122,3.826
				l2.195,4.569h-0.959L120.707,161.598z"/>
			<path style="fill:#263238;" d="M127.763,158.863v0.228h-0.888v-0.275c0-0.756-0.288-1.2-0.96-1.2
				c-0.671,0-0.959,0.444-0.959,1.188c0,1.883,2.819,2.063,2.819,4.425c0,1.271-0.612,2.099-1.895,2.099
				c-1.284,0-1.883-0.828-1.883-2.099v-0.48h0.875v0.528c0,0.755,0.312,1.199,0.984,1.199c0.671,0,0.983-0.444,0.983-1.199
				c0-1.871-2.807-2.051-2.807-4.414c0-1.295,0.6-2.099,1.859-2.099C127.163,156.764,127.763,157.592,127.763,158.863z"/>
		</g>
		<g>
			<path style="fill:#263238;" d="M75.024,217.244V209.7h-1.547v-0.852h4.018v0.852h-1.547v7.544H75.024z"/>
			<path style="fill:#263238;" d="M78.624,215.553l-0.324,1.691h-0.864l1.607-8.396h1.355l1.607,8.396h-0.936l-0.324-1.691H78.624z
				 M78.745,214.749h1.871l-0.947-4.845L78.745,214.749z"/>
			<path style="fill:#263238;" d="M86.375,210.863v0.228h-0.888v-0.275c0-0.756-0.288-1.2-0.959-1.2
				c-0.671,0-0.959,0.444-0.959,1.188c0,1.883,2.819,2.063,2.819,4.425c0,1.271-0.612,2.099-1.895,2.099
				c-1.284,0-1.883-0.828-1.883-2.099v-0.48h0.875v0.528c0,0.755,0.312,1.199,0.984,1.199c0.671,0,0.983-0.444,0.983-1.199
				c0-1.871-2.807-2.051-2.807-4.414c0-1.295,0.6-2.099,1.859-2.099C85.775,208.764,86.375,209.592,86.375,210.863z"/>
			<path style="fill:#263238;" d="M88.632,213.598l-0.492,0.828v2.818h-0.936v-8.396h0.936v4.054l2.231-4.054h0.947l-2.123,3.826
				l2.195,4.569h-0.959L88.632,213.598z"/>
			<path style="fill:#263238;" d="M95.687,210.863v0.228h-0.888v-0.275c0-0.756-0.288-1.2-0.96-1.2
				c-0.671,0-0.959,0.444-0.959,1.188c0,1.883,2.818,2.063,2.818,4.425c0,1.271-0.611,2.099-1.895,2.099
				c-1.284,0-1.883-0.828-1.883-2.099v-0.48h0.876v0.528c0,0.755,0.312,1.199,0.983,1.199c0.672,0,0.984-0.444,0.984-1.199
				c0-1.871-2.807-2.051-2.807-4.414c0-1.295,0.6-2.099,1.859-2.099C95.087,208.764,95.687,209.592,95.687,210.863z"/>
			<path style="fill:#263238;" d="M99.313,208.848v8.396h-0.935v-8.396H99.313z"/>
			<path style="fill:#263238;" d="M101.1,217.244h-0.839v-8.396h1.188l1.943,6.069v-6.069h0.828v8.396h-0.972l-2.147-6.788V217.244z
				"/>
			<path style="fill:#263238;" d="M108.876,208.848c1.319,0,1.883,0.78,1.883,2.051v1.008c0,1.331-0.623,2.027-1.955,2.027h-0.828
				v3.31h-0.936v-8.396H108.876z M108.804,213.094c0.696,0,1.032-0.324,1.032-1.127v-1.116c0-0.768-0.276-1.151-0.959-1.151h-0.9
				v3.394H108.804z"/>
			<path style="fill:#263238;" d="M113.364,208.848c1.319,0,1.871,0.672,1.871,1.919v0.684c0,0.924-0.324,1.499-1.043,1.727
				c0.768,0.228,1.056,0.852,1.056,1.751v1.308c0,0.372,0.012,0.72,0.167,1.007h-0.947c-0.108-0.24-0.156-0.456-0.156-1.02v-1.319
				c0-0.947-0.444-1.247-1.224-1.247h-0.66v3.586h-0.936v-8.396H113.364z M113.124,212.806c0.744,0,1.188-0.24,1.188-1.151v-0.804
				c0-0.755-0.276-1.151-0.972-1.151h-0.912v3.106H113.124z"/>
			<path style="fill:#263238;" d="M116.148,210.875c0-1.283,0.636-2.111,1.919-2.111c1.295,0,1.931,0.828,1.931,2.111v4.342
				c0,1.271-0.636,2.111-1.931,2.111c-1.283,0-1.919-0.839-1.919-2.111V210.875z M117.072,215.265c0,0.768,0.324,1.212,0.996,1.212
				c0.684,0,0.996-0.444,0.996-1.212v-4.438c0-0.755-0.312-1.211-0.996-1.211c-0.671,0-0.996,0.456-0.996,1.211V215.265z"/>
			<path style="fill:#263238;" d="M124.594,210.875v0.72h-0.887v-0.768c0-0.755-0.3-1.211-0.983-1.211
				c-0.672,0-0.984,0.456-0.984,1.211v4.438c0,0.756,0.312,1.212,0.984,1.212c0.684,0,0.983-0.456,0.983-1.212v-1.679h-0.864v-0.839
				h1.751v2.471c0,1.271-0.6,2.111-1.895,2.111c-1.283,0-1.883-0.839-1.883-2.111v-4.342c0-1.271,0.6-2.111,1.883-2.111
				C123.995,208.764,124.594,209.604,124.594,210.875z"/>
			<path style="fill:#263238;" d="M127.355,208.848c1.319,0,1.871,0.672,1.871,1.919v0.684c0,0.924-0.324,1.499-1.044,1.727
				c0.768,0.228,1.056,0.852,1.056,1.751v1.308c0,0.372,0.012,0.72,0.167,1.007h-0.947c-0.108-0.24-0.156-0.456-0.156-1.02v-1.319
				c0-0.947-0.444-1.247-1.224-1.247h-0.66v3.586h-0.935v-8.396H127.355z M127.116,212.806c0.744,0,1.187-0.24,1.187-1.151v-0.804
				c0-0.755-0.276-1.151-0.972-1.151h-0.912v3.106H127.116z"/>
			<path style="fill:#263238;" d="M133.199,212.566v0.839h-2.051v2.986h2.519v0.852h-3.454v-8.396h3.454v0.852h-2.519v2.867H133.199
				z"/>
			<path style="fill:#263238;" d="M138.167,210.863v0.228h-0.888v-0.275c0-0.756-0.288-1.2-0.96-1.2
				c-0.671,0-0.959,0.444-0.959,1.188c0,1.883,2.818,2.063,2.818,4.425c0,1.271-0.611,2.099-1.895,2.099
				c-1.284,0-1.883-0.828-1.883-2.099v-0.48h0.876v0.528c0,0.755,0.312,1.199,0.983,1.199c0.672,0,0.984-0.444,0.984-1.199
				c0-1.871-2.807-2.051-2.807-4.414c0-1.295,0.6-2.099,1.859-2.099C137.567,208.764,138.167,209.592,138.167,210.863z"/>
			<path style="fill:#263238;" d="M142.63,210.863v0.228h-0.888v-0.275c0-0.756-0.288-1.2-0.959-1.2c-0.671,0-0.96,0.444-0.96,1.188
				c0,1.883,2.818,2.063,2.818,4.425c0,1.271-0.611,2.099-1.895,2.099c-1.284,0-1.883-0.828-1.883-2.099v-0.48h0.875v0.528
				c0,0.755,0.312,1.199,0.983,1.199c0.672,0,0.984-0.444,0.984-1.199c0-1.871-2.807-2.051-2.807-4.414
				c0-1.295,0.6-2.099,1.859-2.099C142.031,208.764,142.63,209.592,142.63,210.863z"/>
		</g>
		<g>
			<path style="fill:#263238;" d="M77.519,264.875v0.756h-0.887v-0.804c0-0.755-0.3-1.211-0.983-1.211
				c-0.672,0-0.984,0.456-0.984,1.211v4.438c0,0.756,0.312,1.212,0.984,1.212c0.684,0,0.983-0.456,0.983-1.212v-1.091h0.887v1.043
				c0,1.272-0.6,2.111-1.895,2.111c-1.283,0-1.883-0.839-1.883-2.111v-4.342c0-1.271,0.6-2.111,1.883-2.111
				C76.919,262.764,77.519,263.604,77.519,264.875z"/>
			<path style="fill:#263238;" d="M78.301,264.875c0-1.283,0.636-2.111,1.919-2.111c1.295,0,1.931,0.828,1.931,2.111v4.342
				c0,1.272-0.636,2.111-1.931,2.111c-1.283,0-1.919-0.839-1.919-2.111V264.875z M79.225,269.265c0,0.768,0.324,1.212,0.996,1.212
				c0.684,0,0.996-0.444,0.996-1.212v-4.438c0-0.755-0.312-1.211-0.996-1.211c-0.671,0-0.996,0.456-0.996,1.211V269.265z"/>
			<path style="fill:#263238;" d="M86.135,271.231h-0.9l-1.391-6.68v6.692h-0.815v-8.396h1.307l1.379,6.705l1.331-6.705h1.308v8.396
				h-0.888v-6.753L86.135,271.231z"/>
			<path style="fill:#263238;" d="M91.152,262.848c1.319,0,1.883,0.78,1.883,2.051v1.008c0,1.331-0.624,2.027-1.955,2.027h-0.828
				v3.31h-0.936v-8.396H91.152z M91.08,267.094c0.696,0,1.032-0.324,1.032-1.127v-1.116c0-0.768-0.276-1.151-0.96-1.151h-0.9v3.394
				H91.08z"/>
			<path style="fill:#263238;" d="M93.769,271.244v-8.396h0.935v7.544h2.399v0.852H93.769z"/>
			<path style="fill:#263238;" d="M100.799,266.566v0.839h-2.051v2.986h2.519v0.852h-3.454v-8.396h3.454v0.852h-2.519v2.867H100.799
				z"/>
			<path style="fill:#263238;" d="M103.344,271.244V263.7h-1.547v-0.852h4.018v0.852h-1.547v7.544H103.344z"/>
			<path style="fill:#263238;" d="M109.439,266.566v0.839h-2.051v2.986h2.519v0.852h-3.454v-8.396h3.454v0.852h-2.519v2.867H109.439
				z"/>
			<path style="fill:#263238;" d="M112.739,262.848c1.307,0,1.907,0.791,1.907,2.087v4.234c0,1.283-0.6,2.075-1.907,2.075h-1.967
				v-8.396H112.739z M112.727,270.392c0.672,0,0.996-0.42,0.996-1.188v-4.317c0-0.768-0.324-1.188-1.007-1.188h-1.008v6.692H112.727
				z"/>
			<path style="fill:#263238;" d="M118.595,271.244V263.7h-1.547v-0.852h4.018v0.852h-1.547v7.544H118.595z"/>
			<path style="fill:#263238;" d="M122.195,269.553l-0.324,1.691h-0.864l1.607-8.396h1.355l1.607,8.396h-0.936l-0.324-1.691H122.195
				z M122.315,268.749h1.871l-0.947-4.845L122.315,268.749z"/>
			<path style="fill:#263238;" d="M129.946,264.863v0.227h-0.888v-0.275c0-0.756-0.288-1.2-0.959-1.2
				c-0.671,0-0.959,0.444-0.959,1.188c0,1.883,2.818,2.063,2.818,4.425c0,1.272-0.611,2.099-1.895,2.099
				c-1.284,0-1.883-0.828-1.883-2.099v-0.479h0.876v0.528c0,0.755,0.312,1.199,0.983,1.199c0.672,0,0.984-0.444,0.984-1.199
				c0-1.871-2.807-2.051-2.807-4.414c0-1.295,0.6-2.099,1.859-2.099C129.346,262.764,129.946,263.592,129.946,264.863z"/>
			<path style="fill:#263238;" d="M132.203,267.598l-0.492,0.828v2.818h-0.936v-8.396h0.936v4.054l2.231-4.054h0.947l-2.123,3.826
				l2.195,4.569h-0.96L132.203,267.598z"/>
			<path style="fill:#263238;" d="M139.258,264.863v0.227h-0.888v-0.275c0-0.756-0.288-1.2-0.96-1.2
				c-0.671,0-0.959,0.444-0.959,1.188c0,1.883,2.819,2.063,2.819,4.425c0,1.272-0.612,2.099-1.895,2.099
				c-1.284,0-1.883-0.828-1.883-2.099v-0.479h0.876v0.528c0,0.755,0.312,1.199,0.984,1.199c0.671,0,0.983-0.444,0.983-1.199
				c0-1.871-2.807-2.051-2.807-4.414c0-1.295,0.6-2.099,1.859-2.099C138.658,262.764,139.258,263.592,139.258,264.863z"/>
		</g>
		<g>
			<path style="fill:#7677F4;" d="M371.916,252.962h-26.061c-1.841,0-3.333-1.492-3.333-3.333v-6.863
				c0-1.841,1.492-3.333,3.333-3.333h26.061c1.841,0,3.333,1.492,3.333,3.333v6.863
				C375.249,251.469,373.757,252.962,371.916,252.962z"/>
			<g>
				<path style="fill:#263238;" d="M348.768,248.13l-0.269,1.403h-0.716l1.333-6.964h1.124l1.333,6.964h-0.775l-0.269-1.403H348.768
					z M348.867,247.464h1.552l-0.785-4.019L348.867,247.464z"/>
				<path style="fill:#263238;" d="M355.252,244.251v0.627h-0.735v-0.667c0-0.626-0.249-1.005-0.816-1.005
					c-0.557,0-0.815,0.378-0.815,1.005v3.681c0,0.627,0.259,1.005,0.815,1.005c0.567,0,0.816-0.378,0.816-1.005v-0.905h0.735v0.866
					c0,1.054-0.497,1.751-1.571,1.751c-1.065,0-1.563-0.697-1.563-1.751v-3.602c0-1.055,0.498-1.751,1.563-1.751
					C354.755,242.499,355.252,243.196,355.252,244.251z"/>
				<path style="fill:#263238;" d="M359.031,244.251v0.627h-0.735v-0.667c0-0.626-0.249-1.005-0.816-1.005
					c-0.557,0-0.815,0.378-0.815,1.005v3.681c0,0.627,0.259,1.005,0.815,1.005c0.567,0,0.816-0.378,0.816-1.005v-0.905h0.735v0.866
					c0,1.054-0.497,1.751-1.571,1.751c-1.065,0-1.563-0.697-1.563-1.751v-3.602c0-1.055,0.498-1.751,1.563-1.751
					C358.534,242.499,359.031,243.196,359.031,244.251z"/>
				<path style="fill:#263238;" d="M362.213,245.653v0.696h-1.701v2.477h2.09v0.706h-2.865v-6.964h2.865v0.707h-2.09v2.378H362.213z
					"/>
				<path style="fill:#263238;" d="M364.838,242.569c1.095,0,1.563,0.647,1.563,1.702v0.836c0,1.104-0.518,1.682-1.622,1.682h-0.686
					v2.746h-0.775v-6.964H364.838z M364.778,246.091c0.577,0,0.855-0.269,0.855-0.935v-0.925c0-0.637-0.228-0.955-0.796-0.955
					h-0.746v2.815H364.778z"/>
				<path style="fill:#263238;" d="M368.01,249.533v-6.258h-1.283v-0.707h3.333v0.707h-1.283v6.258H368.01z"/>
			</g>
		</g>
		<g>
			<path style="fill:#7677F4;" d="M407.994,252.962h-26.061c-1.841,0-3.333-1.492-3.333-3.333v-6.863
				c0-1.841,1.492-3.333,3.333-3.333h26.061c1.841,0,3.333,1.492,3.333,3.333v6.863
				C411.328,251.469,409.835,252.962,407.994,252.962z"/>
			<g>
				<path style="fill:#263238;" d="M385.691,242.569c1.085,0,1.582,0.657,1.582,1.731v3.512c0,1.064-0.497,1.721-1.582,1.721h-1.631
					v-6.964H385.691z M385.682,248.827c0.558,0,0.826-0.348,0.826-0.985v-3.581c0-0.637-0.268-0.985-0.836-0.985h-0.836v5.551
					H385.682z"/>
				<path style="fill:#263238;" d="M390.476,245.653v0.696h-1.701v2.477h2.089v0.706h-2.865v-6.964h2.865v0.707h-2.089v2.378
					H390.476z"/>
				<path style="fill:#263238;" d="M394.651,244.251v0.627h-0.735v-0.667c0-0.626-0.249-1.005-0.816-1.005
					c-0.557,0-0.815,0.378-0.815,1.005v3.681c0,0.627,0.259,1.005,0.815,1.005c0.567,0,0.816-0.378,0.816-1.005v-0.905h0.735v0.866
					c0,1.054-0.497,1.751-1.571,1.751c-1.064,0-1.563-0.697-1.563-1.751v-3.602c0-1.055,0.498-1.751,1.563-1.751
					C394.154,242.499,394.651,243.196,394.651,244.251z"/>
				<path style="fill:#263238;" d="M395.357,249.533v-6.964h0.775v6.258h1.99v0.706H395.357z"/>
				<path style="fill:#263238;" d="M399.484,242.569v6.964h-0.775v-6.964H399.484z"/>
				<path style="fill:#263238;" d="M400.965,249.533h-0.696v-6.964h0.985l1.611,5.034v-5.034h0.687v6.964h-0.806l-1.781-5.631
					V249.533z"/>
				<path style="fill:#263238;" d="M406.823,245.653v0.696h-1.701v2.477h2.089v0.706h-2.865v-6.964h2.865v0.707h-2.089v2.378
					H406.823z"/>
			</g>
		</g>
		
			<rect x="61" y="81.503" style="fill:#7677F4;stroke:#263238;stroke-linecap:round;stroke-miterlimit:10;" width="364" height="20"/>
		<rect x="61" y="61" style="fill:none;stroke:#263238;stroke-linecap:round;stroke-miterlimit:10;" width="364" height="271"/>
		<rect x="61" y="61" style="fill:#263238;stroke:#263238;stroke-linecap:round;stroke-miterlimit:10;" width="364" height="20"/>
		<circle style="fill:#7677F4;stroke:#263238;stroke-linecap:round;stroke-miterlimit:10;" cx="380" cy="70" r="5"/>
		<circle style="fill:#9C9C9C;stroke:#263238;stroke-miterlimit:10;" cx="397" cy="70" r="5"/>
		<circle style="fill:#9C9C9C;stroke:#263238;stroke-miterlimit:10;" cx="414" cy="70" r="5"/>
		<g>
			<g>
				<path style="fill:#FFFFFF;" d="M367.771,162.891l-3.133-2.934c-0.798-0.748-2.081-0.58-2.661,0.347l0,0
					c-0.43,0.688-0.327,1.582,0.25,2.154l6.183,6.134c3.174,3.075,8.099,3.424,11.675,0.827l0,0
					c3.617-2.627,4.79-7.492,2.767-11.479l-4.393-8.082c-0.326-0.6-0.928-1.024-1.61-1.064c-0.64-0.037-1.326,0.223-1.512,1.41
					c0,0-2.374-2.151-4.006,0.445c0,0-2.597-2.448-4.303,0.519l-2.718-5.302c-0.498-1.043-1.732-1.504-2.792-1.044l0,0
					c-1.112,0.483-1.604,1.789-1.087,2.886L367.771,162.891z"/>
				<path style="fill:#263238;" d="M374.74,171.661c-2.42,0-4.826-0.916-6.677-2.709l-6.187-6.138
					c-0.747-0.741-0.879-1.882-0.322-2.773c0.356-0.569,0.942-0.946,1.607-1.033c0.666-0.087,1.329,0.126,1.819,0.585l1.223,1.145
					l-6.223-12.815c-0.308-0.654-0.338-1.386-0.083-2.063c0.255-0.676,0.76-1.207,1.423-1.495c1.312-0.57,2.825-0.005,3.442,1.287
					l2.351,4.534c0.476-0.543,1.033-0.865,1.664-0.958c1.009-0.149,1.931,0.344,2.453,0.706c0.492-0.601,1.078-0.951,1.746-1.043
					c0.821-0.112,1.575,0.203,2.077,0.499c0.332-0.753,0.973-1.145,1.826-1.095c0.828,0.048,1.602,0.555,2.02,1.324l4.393,8.082
					c2.154,4.242,0.926,9.334-2.912,12.121C378.684,171.055,376.707,171.661,374.74,171.661z M363.452,159.988
					c-0.054,0-0.108,0.003-0.162,0.01c-0.368,0.048-0.693,0.256-0.889,0.571c-0.309,0.493-0.236,1.124,0.178,1.534l6.183,6.134
					c3.002,2.908,7.643,3.237,11.03,0.777c3.438-2.497,4.538-7.059,2.615-10.848l-4.387-8.07c-0.254-0.467-0.714-0.775-1.2-0.803
					c-0.409-0.023-0.846,0.075-0.989,0.988l-0.143,0.915l-0.686-0.622c-0.008-0.007-0.937-0.828-1.895-0.692
					c-0.512,0.072-0.967,0.42-1.353,1.033l-0.324,0.515l-0.442-0.417c-0.009-0.009-1.034-0.951-2.07-0.796
					c-0.557,0.084-1.047,0.488-1.457,1.201l-0.474,0.824l-3.128-6.16c-0.384-0.804-1.325-1.156-2.142-0.801
					c-0.413,0.179-0.727,0.51-0.886,0.93c-0.159,0.421-0.14,0.877,0.052,1.284l8.456,17.548l-5.043-4.722
					C364.065,160.106,363.765,159.988,363.452,159.988z"/>
			</g>
			<g>
				<path style="fill:#263238;" d="M369.329,157.085c-0.195,0-0.379-0.114-0.46-0.305l-2.3-5.416
					c-0.108-0.254,0.01-0.547,0.264-0.655c0.255-0.108,0.548,0.011,0.655,0.265l2.3,5.416c0.108,0.254-0.01,0.547-0.264,0.655
					C369.46,157.072,369.394,157.085,369.329,157.085z"/>
			</g>
			<g>
				<path style="fill:#263238;" d="M373.335,155.898c-0.195,0-0.38-0.115-0.461-0.306l-2.003-4.748
					c-0.107-0.254,0.012-0.547,0.266-0.655c0.254-0.107,0.547,0.012,0.655,0.266l2.003,4.748c0.107,0.254-0.012,0.547-0.266,0.655
					C373.466,155.885,373.4,155.898,373.335,155.898z"/>
			</g>
			<g>
				<path style="fill:#263238;" d="M377.267,154.859c-0.188,0-0.369-0.107-0.454-0.289l-1.929-4.154
					c-0.116-0.25-0.007-0.548,0.243-0.664c0.25-0.116,0.547-0.008,0.664,0.243l1.929,4.155c0.116,0.25,0.007,0.548-0.243,0.664
					C377.409,154.844,377.338,154.859,377.267,154.859z"/>
			</g>
		</g>
	</g>
</g>
<g id="Character">
	<g>
		<g>
			<g>
				<path style="fill:#FFFFFF;stroke:#263238;stroke-miterlimit:10;" d="M262.451,317.584c0,0-0.232,13.014-0.232,19.784
					c0,6.77-2.257,57.316-2.257,57.316s-5.416,0-6.77,2.708c-1.354,2.708-2.257,8.575-2.257,8.575s-9.929,3.61-13.088,8.575
					c-3.159,4.964-4.062,8.575-4.964,9.929c-0.903,1.354-9.477,5.416-9.477,5.416s4.964,2.257,6.77,5.416
					c1.805,3.159,3.159,6.77,3.159,6.77s9.026-1.354,20.76-3.61c11.734-2.257,21.212-4.513,24.822-8.123
					c3.611-3.611,13.088-15.345,13.088-15.345s0.903-43.777-3.61-60.926c-4.513-17.15-16.466-37.836-16.466-37.836"/>
				<path style="fill:none;stroke:#263238;stroke-miterlimit:10;" d="M244.45,434.314c0.21,0.981,0.28,2.06,0.167,3.245"/>
				<path style="fill:none;stroke:#263238;stroke-miterlimit:10;" d="M234.689,425.373c0,0,6.349,1.587,8.92,6.585"/>
				<path style="fill:none;stroke:#263238;stroke-miterlimit:10;" d="M260.788,404.707c-0.827-0.696-1.569-1.204-2.18-1.448"/>
				<path style="fill:none;stroke:#263238;stroke-miterlimit:10;" d="M253.644,406.869c0,0,3.61,3.61,6.77,7.221
					c3.159,3.611,14.442,7.221,14.442,7.221s-6.837-9.467-12.081-14.751"/>
			</g>
			<g>
				<path style="fill:#FFFFFF;stroke:#263238;stroke-miterlimit:10;" d="M223.406,429.886c0,0-22.077-4.646-24.333-4.194
					c-2.257,0.451-9.937,3.638-15.833,11.415c-2.514,3.316-0.451,4.513,1.354,4.062c1.805-0.451,4.875-4.508,6.541-6.508
					c0.914-1.096,6.361-3.647,6.361-3.647s-7.486,6.545-8.389,10.155c-0.903,3.611-2.257,6.318-0.451,7.672
					c1.805,1.354,4.307-3.439,4.307-3.439l4.268-6.941l5.416-4.062c0,0-4.953,3.513-7.788,14.231
					c-0.143,0.54,0.135,1.002,0.581,1.381c1.327,1.129,3.38,0.66,4.226-0.864c1.253-2.26,4.581-8.321,6.141-10.235
					c1.94-2.38,6.868-2.774,6.868-2.774s-5.141,4.097-6.044,6.353c-0.903,2.257-1.805,7.379,0,7.83
					c1.805,0.451,3.828-5.702,6.438-7.679c1.609-1.219,6.729-3.73,6.729-3.73s5.416-0.903,4.513,3.159
					c-0.903,4.062-8.124,3.611-8.575,6.318c-0.451,2.708,6.77,0.451,8.575,0.451c1.805,0,8.575-1.805,9.026-6.77
					C233.786,437.107,227.016,431.24,223.406,429.886z"/>
				<path style="fill:#FFFFFF;stroke:#263238;stroke-miterlimit:10;" d="M202.646,434.399c0,0,2.317-2.07,2.983-2.404
					c0.666-0.333,4.165-0.666,4.165-0.666"/>
				<path style="fill:#FFFFFF;stroke:#263238;stroke-miterlimit:10;" d="M197.496,431.013c0,0,2.136-2.017,3.135-2.184
					s3.832-0.5,3.832-0.5"/>
			</g>
		</g>
		<path style="fill:#FFFFFF;stroke:#263238;stroke-miterlimit:10;" d="M272.598,347.748c0,0,15.773,59.925,16.698,67.245
			c0.925,7.32-1.354,37.007-1.354,37.007h107.862c0,0,2.708-10.831,2.708-24.822s-9.696-98.763-11.05-103.727
			c-1.354-4.964-6.318-15.796-11.734-19.406c-5.416-3.61-47.387-21.663-47.387-21.663l-32.494,14.442
			c0,0-32.945,17.601-33.397,20.76c-0.451,3.159,1.805,15.796,1.805,15.796"/>
		<polygon style="fill:#7677F4;stroke:#263238;stroke-miterlimit:10;" points="294.215,307.924 297.854,321.361 299.536,424.469 
			309.613,437.345 318.571,423.069 301.773,321.081 307.092,307.645 300.374,296.727 		"/>
		<g>
			<polygon style="fill:#263238;stroke:#263238;stroke-miterlimit:10;" points="315.288,428.301 306.447,433.3 309.613,437.345 			
				"/>
			<polygon style="fill:#263238;stroke:#263238;stroke-miterlimit:10;" points="304.436,338.636 303.727,332.861 298.356,335.394 
				298.303,341.689 			"/>
			<polygon style="fill:#263238;stroke:#263238;stroke-miterlimit:10;" points="294.215,307.924 296.89,317.799 304.856,313.295 
				307.092,307.645 303.098,301.154 295.61,305.388 			"/>
			<polygon style="fill:#263238;stroke:#263238;stroke-miterlimit:10;" points="315.77,403.461 314.034,391.308 299.41,399.577 
				299.476,412.674 			"/>
			<polygon style="fill:#263238;stroke:#263238;stroke-miterlimit:10;" points="309.817,370.405 307.678,358.394 298.618,363.282 
				298.684,376.379 			"/>
		</g>
		<polygon style="fill:#FFFFFF;stroke:#263238;stroke-miterlimit:10;" points="295.055,294.488 290.016,315.203 300.374,305.125 		
			"/>
		<g>
			<path style="fill:#FFFFFF;stroke:#263238;stroke-miterlimit:10;" d="M254.647,234.218c0,0,0.657,5.123,1.217,8.762
				c0.56,3.639,0.56,7.558,0.84,10.917c0.28,3.359,6.159,6.438,6.159,6.438s-0.56,6.159-1.4,9.518
				c-0.84,3.359-1.014,3.197,0.105,4.317c1.12,1.12,5.879,1.96,5.879,1.96s6.893,15.558,8.293,17.238
				c1.4,1.68,3.639,3.079,7.838,2.799c4.199-0.28,9.798-3.639,9.798-3.639l6.998,12.597l22.954-27.433
				c0,0-6.718-15.396-6.998-22.395c-0.28-6.998,1.302-18.28-0.658-28.357c-1.96-10.078-16.236-19.035-27.993-20.715
				s-28.273,6.438-34.712,11.197c-6.438,4.759-5.599,13.717-3.919,15.676S254.647,234.218,254.647,234.218z"/>
			<polygon style="fill:#263238;stroke:#263238;stroke-miterlimit:10;" points="293.375,292.528 300.374,305.125 300.463,305.018 
				304.212,284.13 			"/>
			<path style="fill:#263238;stroke:#263238;stroke-miterlimit:10;" d="M271.443,231.979c6.718-2.519,13.717-9.238,18.755-8.118
				c5.039,1.12-0.742,7.922-0.182,10.161c0.56,2.24,5.039,3.919,7.838,4.479c2.799,0.56,3.079,3.359,3.079,6.438
				c0,3.079,2.799,5.879,4.479,3.919c1.68-1.96,1.12-10.357,6.159-10.637c5.039-0.28,4.479,10.357,3.639,13.997
				c-0.84,3.639-4.479,7.558-4.479,7.558s3.172,3.169,7.01,2.679c-0.773-2.69-1.335-5.24-1.412-7.158
				c-0.28-6.998,1.302-18.28-0.657-28.357c-1.96-10.077-16.236-19.035-27.993-20.715c-11.757-1.68-28.273,6.438-34.712,11.197
				c-6.438,4.759-5.599,13.717-3.919,15.676c1.68,1.96,5.599,1.12,5.599,1.12S264.725,234.498,271.443,231.979z"/>
			<path style="fill:none;stroke:#263238;stroke-miterlimit:10;" d="M270.141,246.899c0,0,5.879-5.319,13.157-3.639"/>
			<path style="fill:none;stroke:#263238;stroke-miterlimit:10;" d="M260.903,251.658c0,0-1.96-0.56-3.919-0.56"/>
			<path style="fill:#263238;" d="M280.308,254.696c0.633,1.152,0.541,2.417-0.204,2.827c-0.745,0.409-1.862-0.193-2.495-1.344
				c-0.633-1.152-0.541-2.417,0.204-2.827C278.559,252.942,279.676,253.544,280.308,254.696z"/>
			<path style="fill:none;stroke:#263238;stroke-miterlimit:10;" d="M288.617,244.94c0,0-10.917,1.68-19.315,5.599
				c0,0,3.919,10.077,5.599,11.477c1.68,1.4,10.917,0.28,13.997-1.96C291.976,257.817,288.617,244.94,288.617,244.94z"/>
			<line style="fill:none;stroke:#263238;stroke-miterlimit:10;" x1="288.617" y1="244.94" x2="307.092" y2="241.581"/>
			<line style="fill:none;stroke:#263238;stroke-miterlimit:10;" x1="269.301" y1="250.538" x2="262.863" y2="253.058"/>
			<path style="fill:none;stroke:#263238;stroke-miterlimit:10;" d="M264.262,252.778c0,0-7.838,1.4-12.877,3.919
				c0,0,3.919,9.238,5.599,10.637c1.68,1.4,4.479,2.519,4.479,2.519l1.4-9.518L264.262,252.778z"/>
			<path style="fill:none;stroke:#263238;stroke-miterlimit:10;" d="M263.982,255.857c0,0,2.799-3.359,6.718-2.24"/>
			<path style="fill:none;stroke:#263238;stroke-miterlimit:10;" d="M274.683,277.972c0,0,7.558-0.28,11.477-4.479"/>
			<path style="fill:none;stroke:#263238;stroke-miterlimit:10;" d="M311.571,260.056c0,0,2.016,9.954,0.336,13.034
				c-1.68,3.079-5.018,7.36-5.018,7.36"/>
		</g>
		<polygon style="fill:#FFFFFF;stroke:#263238;stroke-miterlimit:10;" points="324.448,274.333 300.374,305.125 310.171,318.002 
			332.286,282.171 		"/>
		<g>
			<g>
				<path style="fill:#FFFFFF;stroke:#263238;stroke-linecap:round;stroke-miterlimit:10;" d="M289.274,407.673h-13.784
					c-2.374,0-4.354-1.813-4.563-4.177l-2.402-27.175h27.713l-2.402,27.175C293.628,405.86,291.648,407.673,289.274,407.673z"/>
				<g>
					<path style="fill:#FFFFFF;stroke:#263238;stroke-linecap:round;stroke-miterlimit:10;" d="M376.224,304.492
						c2.233,1.861,9.385,7.982,13.024,14.141c2.069,3.502,7.408,11.706,11.629,18.132c3.8,5.786,6.422,12.26,7.722,19.059
						c2.953,15.445,8.388,43.407,10.189,49.61c2.519,8.678,0.84,16.796-1.68,18.196c-2.519,1.4-20.435-0.28-34.712-2.519
						c-14.277-2.239-47.029-12.597-47.029-12.597s-8.958,0.84-14.557,1.12c-5.599,0.28-15.396-1.68-17.356-2.799
						c-1.96-1.12-3.919-8.118-3.919-8.118s-2.239-1.68-3.919-3.919s-0.28-6.439-0.28-6.439s-1.68-3.919-0.56-6.438
						c1.12-2.519,14.556-2.519,14.556-2.519s6.438,0,8.398,1.68c1.96,1.68,20.435,12.037,20.435,12.037l34.712,1.68
						c0,0-4.199-8.678-4.479-11.757c-0.28-3.079,1.68-10.078,1.68-10.917c0-0.84-9.518-27.154-9.798-29.673
						c-0.28-2.519-1.401-9.05,2.798-17.168"/>
					<path style="fill:none;stroke:#263238;stroke-linecap:round;stroke-miterlimit:10;" d="M402.971,380.031
						c1.536,1.142,2.933,2.411,4.117,3.821"/>
					<path style="fill:none;stroke:#263238;stroke-linecap:round;stroke-miterlimit:10;" d="M374.594,370.313
						c0,0,15.847,1.554,26.657,8.528"/>
					<path style="fill:#FFFFFF;stroke:#263238;stroke-linecap:round;stroke-miterlimit:10;" d="M349.084,404.593
						c0.275-4.949-0.936-8.607-2.239-11.057l-8.678-0.42c0,0-18.475-10.358-20.435-12.037c-1.96-1.68-8.398-1.68-8.398-1.68
						s-13.437,0-14.556,2.519c-1.12,2.519,0.56,6.438,0.56,6.438s-1.4,4.199,0.28,6.439c1.68,2.239,3.919,3.919,3.919,3.919
						s1.96,6.998,3.919,8.118c1.96,1.12,11.757,3.079,17.356,2.799c5.599-0.28,14.557-1.12,14.557-1.12s5.218,1.65,12.389,3.773
						C348.391,410.246,348.911,407.702,349.084,404.593z"/>
					<path style="fill:none;stroke:#263238;stroke-linecap:round;stroke-miterlimit:10;" d="M356.561,410.624
						c-0.409,0.999-0.934,1.983-1.599,2.928"/>
					<path style="fill:none;stroke:#263238;stroke-linecap:round;stroke-miterlimit:10;" d="M356.642,395.915
						c0,0,2.133,5.907,0.746,12.068"/>
					<path style="fill:none;stroke:#263238;stroke-linecap:round;stroke-miterlimit:10;" d="M398.916,394.029
						c2.162,0.421,3.634,0.767,3.634,0.767"/>
					<path style="fill:none;stroke:#263238;stroke-linecap:round;stroke-miterlimit:10;" d="M372.878,394.796
						c0,0,7.838-2.24,13.997-2.24c2.286,0,5.035,0.309,7.589,0.697"/>
				</g>
			</g>
			<g>
				<g>
					<path style="fill:none;stroke:#263238;stroke-linecap:round;stroke-miterlimit:10;" d="M270.871,373.082
						c0-1.985,1.805-1.985,1.805-3.971c0-1.986-1.805-1.986-1.805-3.971c0-1.987,1.805-1.987,1.805-3.975
						c0-1.989-1.805-1.989-1.805-3.977c0-1.989,1.805-1.989,1.805-3.978"/>
				</g>
				<g>
					<path style="fill:none;stroke:#263238;stroke-linecap:round;stroke-miterlimit:10;" d="M284.239,373.443
						c0-1.48,1.805-1.48,1.805-2.96c0-1.48-1.805-1.48-1.805-2.96c0-1.481,1.805-1.481,1.805-2.961c0-1.483-1.805-1.483-1.805-2.966
						s1.805-1.483,1.805-2.966"/>
				</g>
				<g>
					<path style="fill:none;stroke:#263238;stroke-linecap:round;stroke-miterlimit:10;" d="M291.465,373.082
						c0-2.312,1.805-2.312,1.805-4.623c0-2.31-1.805-2.31-1.805-4.621c0-2.312,1.805-2.312,1.805-4.625
						c0-2.314-1.805-2.314-1.805-4.628s1.805-2.314,1.805-4.628"/>
				</g>
			</g>
		</g>
	</g>
</g>
<g id="Device">
	<g>
		<g>
			<rect x="101.366" y="447.5" style="fill:#9C9C9C;stroke:#263238;stroke-miterlimit:10;" width="182.5" height="4.5"/>
			<path style="fill:#9C9C9C;stroke:#263238;stroke-miterlimit:10;" d="M168.693,364H82.009c-1.843,0-3.188,1.742-2.722,3.525
				L101.366,452h92.5l-22.451-85.898C171.091,364.864,169.973,364,168.693,364z"/>
		</g>
		<path style="fill:#828282;stroke:#263238;stroke-miterlimit:10;" d="M101.366,452h92.5l-14.818-56.696
			c-11.296,5.053-26.493,10.013-48.682,18.696c-17.578,6.878-27.655,14.437-33.403,21.153L101.366,452z"/>
		<line style="fill:none;stroke:#263238;stroke-miterlimit:10;" x1="189.247" y1="443.698" x2="190.032" y2="446.667"/>
		<line style="fill:none;stroke:#263238;stroke-miterlimit:10;" x1="171.18" y1="375.382" x2="187.985" y2="438.924"/>
		<path style="fill:none;stroke:#263238;stroke-miterlimit:10;" d="M90.699,366h75.834c1.277,0,2.394,0.86,2.72,2.094l1.016,3.843"
			/>
	</g>
	<g>
		<line style="fill:none;stroke:#263238;stroke-linecap:round;stroke-miterlimit:10;" x1="465" y1="452" x2="477" y2="452"/>
		<line style="fill:none;stroke:#263238;stroke-linecap:round;stroke-miterlimit:10;" x1="33" y1="452" x2="455" y2="452"/>
	</g>
</g>
<g id="Floor">
</g>
</svg>
