<?xml version="1.0" encoding="utf-8"?>
<!-- Generator: Adobe Illustrator 27.5.0, SVG Export Plug-In . SVG Version: 6.00 Build 0)  -->
<svg version="1.1" xmlns="http://www.w3.org/2000/svg" xmlns:xlink="http://www.w3.org/1999/xlink" x="0px" y="0px"
	 viewBox="0 0 500 500" style="enable-background:new 0 0 500 500;" xml:space="preserve">
<g id="Background_Simple">
	<g>
		<path style="fill:#7677F4;" d="M450.834,282.697c-13.565,35.387-41.282,73.687-80.285,85.026
			c-58.932,17.139-65.973,63.406-171.527,59.114c-16.458-0.668-31.669-2.921-45.643-6.519c-7.512-1.933-14.668-4.265-21.46-6.953
			c-61.664-24.325-93.832-77.866-96.502-133.885c-3.525-73.678,49.257-108.797,83.56-129.36
			c34.304-20.563,75.648-100.241,179.449-96.816c15.826,0.529,31.615,2.635,46.916,6.675c34.927,9.207,70.432,29.57,91.064,59.34
			c1.549,2.236,3.026,4.525,4.441,6.857C468.457,171.803,469.329,234.454,450.834,282.697z"/>
		<path style="opacity:0.8;fill:#FFFFFF;" d="M450.834,282.697c-13.565,35.387-41.282,73.687-80.285,85.026
			c-58.932,17.139-65.973,63.406-171.527,59.114c-16.458-0.668-31.669-2.921-45.643-6.519c-7.512-1.933-14.668-4.265-21.46-6.953
			c-61.664-24.325-93.832-77.866-96.502-133.885c-3.525-73.678,49.257-108.797,83.56-129.36
			c34.304-20.563,75.648-100.241,179.449-96.816c15.826,0.529,31.615,2.635,46.916,6.675c34.927,9.207,70.432,29.57,91.064,59.34
			c1.549,2.236,3.026,4.525,4.441,6.857C468.457,171.803,469.329,234.454,450.834,282.697z"/>
	</g>
</g>
<g id="Magnifying_glass">
	<path style="fill:#263238;" d="M163.696,426.388l-12.42-10.868c-0.946-0.829-2.246-0.981-3.33-0.514l-3.565-3.119
		c-0.186-0.163-0.405-0.26-0.632-0.304c2.247-2.67,3.607-6.111,3.607-9.866c0-8.464-6.885-15.349-15.349-15.349
		c-8.464,0-15.349,6.885-15.349,15.349s6.885,15.349,15.349,15.349c3.899,0,7.452-1.473,10.162-3.876
		c0.059,0.276,0.199,0.536,0.428,0.736l3.565,3.12c-0.318,1.136,0.004,2.403,0.952,3.232l12.42,10.868
		c0.599,0.525,1.341,0.782,2.08,0.782c0.88,0,1.755-0.365,2.379-1.079C165.143,429.534,165.01,427.537,163.696,426.388z
		 M132.008,415.26c-7.468,0-13.543-6.075-13.543-13.543c0-7.468,6.076-13.544,13.543-13.544c7.468,0,13.544,6.075,13.544,13.544
		C145.551,409.185,139.476,415.26,132.008,415.26z"/>
</g>
<g id="People_icons">
	<g>
		<g>
			<path style="fill:none;stroke:#263238;stroke-linecap:round;stroke-linejoin:round;stroke-miterlimit:10;" d="M244.766,48.463
				c0,2.615-1.649,4.734-3.682,4.734c-2.034,0-3.682-2.12-3.682-4.734s1.649-4.734,3.682-4.734
				C243.118,43.729,244.766,45.849,244.766,48.463z"/>
			<path style="fill:none;stroke:#263238;stroke-linecap:round;stroke-linejoin:round;stroke-miterlimit:10;" d="M248.554,63.95
				h-15.36l0.858-6.661c0.225-1.75,1.716-3.061,3.481-3.061h6.684c1.765,0,3.255,1.311,3.481,3.061L248.554,63.95z"/>
		</g>
		<g>
			<path style="fill:none;stroke:#263238;stroke-linecap:round;stroke-linejoin:round;stroke-miterlimit:10;" d="M262.009,48.463
				c0,2.615-1.649,4.734-3.682,4.734c-2.034,0-3.682-2.12-3.682-4.734s1.649-4.734,3.682-4.734
				C260.36,43.729,262.009,45.849,262.009,48.463z"/>
			<path style="fill:none;stroke:#263238;stroke-linecap:round;stroke-linejoin:round;stroke-miterlimit:10;" d="M265.796,63.95
				h-15.36l0.858-6.661c0.225-1.75,1.716-3.061,3.481-3.061h6.684c1.765,0,3.255,1.311,3.481,3.061L265.796,63.95z"/>
		</g>
		<g>
			<path style="fill:#7677F4;stroke:#263238;stroke-linecap:round;stroke-linejoin:round;stroke-miterlimit:10;" d="M279.251,48.463
				c0,2.615-1.649,4.734-3.682,4.734c-2.034,0-3.682-2.12-3.682-4.734s1.649-4.734,3.682-4.734
				C277.602,43.729,279.251,45.849,279.251,48.463z"/>
			<path style="fill:#7677F4;stroke:#263238;stroke-linecap:round;stroke-linejoin:round;stroke-miterlimit:10;" d="M283.038,63.95
				h-15.36l0.858-6.661c0.225-1.75,1.716-3.061,3.481-3.061h6.684c1.765,0,3.255,1.311,3.481,3.061L283.038,63.95z"/>
		</g>
		<g>
			<path style="fill:none;stroke:#263238;stroke-linecap:round;stroke-linejoin:round;stroke-miterlimit:10;" d="M296.493,48.463
				c0,2.615-1.649,4.734-3.682,4.734c-2.034,0-3.682-2.12-3.682-4.734s1.649-4.734,3.682-4.734
				C294.845,43.729,296.493,45.849,296.493,48.463z"/>
			<path style="fill:none;stroke:#263238;stroke-linecap:round;stroke-linejoin:round;stroke-miterlimit:10;" d="M300.281,63.95
				h-15.36l0.858-6.661c0.225-1.75,1.716-3.061,3.481-3.061h6.684c1.765,0,3.255,1.311,3.481,3.061L300.281,63.95z"/>
		</g>
		<g>
			<path style="fill:none;stroke:#263238;stroke-linecap:round;stroke-linejoin:round;stroke-miterlimit:10;" d="M313.735,48.463
				c0,2.615-1.649,4.734-3.682,4.734c-2.034,0-3.682-2.12-3.682-4.734s1.649-4.734,3.682-4.734
				C312.087,43.729,313.735,45.849,313.735,48.463z"/>
			<path style="fill:none;stroke:#263238;stroke-linecap:round;stroke-linejoin:round;stroke-miterlimit:10;" d="M317.523,63.95
				h-15.36l0.858-6.661c0.225-1.75,1.716-3.061,3.481-3.061h6.684c1.765,0,3.255,1.311,3.481,3.061L317.523,63.95z"/>
		</g>
		<g>
			<path style="fill:none;stroke:#263238;stroke-linecap:round;stroke-linejoin:round;stroke-miterlimit:10;" d="M330.978,48.463
				c0,2.615-1.649,4.734-3.682,4.734c-2.034,0-3.682-2.12-3.682-4.734s1.649-4.734,3.682-4.734
				C329.329,43.729,330.978,45.849,330.978,48.463z"/>
			<path style="fill:none;stroke:#263238;stroke-linecap:round;stroke-linejoin:round;stroke-miterlimit:10;" d="M334.765,63.95
				h-15.36l0.858-6.661c0.225-1.75,1.716-3.061,3.481-3.061h6.684c1.765,0,3.255,1.311,3.481,3.061L334.765,63.95z"/>
		</g>
	</g>
</g>
<g id="Chart">
	<g>
		<path style="fill:#7677F4;stroke:#263238;stroke-linecap:round;stroke-linejoin:round;stroke-miterlimit:10;" d="M121.498,75.147
			c0,0.262-0.009,0.524-0.018,0.785c-0.406,10.501-9.047,18.88-19.647,18.88c-10.862,0-19.665-8.803-19.665-19.665
			c0-10.862,8.803-19.665,19.665-19.665C112.695,55.482,121.498,64.285,121.498,75.147z"/>
		<path style="fill:#FFFFFF;stroke:#263238;stroke-linecap:round;stroke-linejoin:round;stroke-miterlimit:10;" d="M101.834,55.482
			v20.789h19.616c0.006-0.114,0.025-0.224,0.03-0.338c0.009-0.262,0.018-0.524,0.018-0.785
			C121.498,64.285,112.695,55.482,101.834,55.482z"/>
		<g>
			<path style="fill:none;stroke:#263238;stroke-linecap:round;stroke-linejoin:round;stroke-miterlimit:10;" d="M147.821,50.959
				c0,2.615-1.649,4.734-3.682,4.734c-2.034,0-3.682-2.12-3.682-4.734c0-2.615,1.649-4.734,3.682-4.734
				C146.172,46.225,147.821,48.344,147.821,50.959z"/>
			<path style="fill:none;stroke:#263238;stroke-linecap:round;stroke-linejoin:round;stroke-miterlimit:10;" d="M151.608,66.446
				h-15.36l0.858-6.661c0.225-1.75,1.716-3.061,3.481-3.061h6.684c1.765,0,3.255,1.311,3.481,3.061L151.608,66.446z"/>
		</g>
		<g>
			<path style="fill:none;stroke:#263238;stroke-linecap:round;stroke-linejoin:round;stroke-miterlimit:10;" d="M73.991,89.201
				c0,2.615-1.649,4.734-3.682,4.734c-2.034,0-3.682-2.12-3.682-4.734s1.649-4.734,3.682-4.734
				C72.342,84.467,73.991,86.587,73.991,89.201z"/>
			<path style="fill:none;stroke:#263238;stroke-linecap:round;stroke-linejoin:round;stroke-miterlimit:10;" d="M77.778,104.688
				h-15.36l0.858-6.661c0.225-1.75,1.716-3.061,3.481-3.061h6.684c1.765,0,3.255,1.311,3.481,3.061L77.778,104.688z"/>
		</g>
		<polyline style="fill:none;stroke:#263238;stroke-linecap:round;stroke-linejoin:round;stroke-miterlimit:10;" points="
			117.425,63.052 122.193,58.284 135.374,58.284 		"/>
		<polyline style="fill:none;stroke:#263238;stroke-linecap:round;stroke-linejoin:round;stroke-miterlimit:10;" points="
			99.476,95.024 99.476,103.157 81.807,103.157 		"/>
	</g>
</g>
<g id="Plant">
	<g>
		<path style="fill:#7677F4;" d="M463.62,281.252c0,0,0.82-8.194-2.458-11.881c-3.278-3.687-8.194,0.819-6.965,5.736
			C455.427,280.023,463.62,281.252,463.62,281.252z"/>
		<path style="fill:#7677F4;" d="M454.207,317.765c0,0,1.277-12.771-3.831-18.518c-5.108-5.747-12.771,1.277-10.855,8.94
			C441.435,315.85,454.207,317.765,454.207,317.765z"/>
		<path style="fill:#7677F4;" d="M451.441,338.462c0,0-1.405-12.758-7.596-17.318c-6.191-4.56-12.227,3.903-8.761,11
			C438.551,339.242,451.441,338.462,451.441,338.462z"/>
		<path style="fill:#7677F4;" d="M464.441,349.146c-7.551,1.453-14.307,12.366-14.307,12.366s11.302,6.249,17.483,1.333
			C473.8,357.929,471.992,347.693,464.441,349.146z"/>
		<path style="fill:#7677F4;" d="M466.939,368.372c-10.802,2.079-20.467,17.691-20.467,17.691s16.168,8.94,25.012,1.907
			C480.328,380.937,477.741,366.293,466.939,368.372z"/>
		<path style="fill:#7677F4;" d="M446.238,384.471c0.231-0.345,0.451-0.701,0.638-1.084c1.504-3.08,1.483-6.377,0.496-9.044
			c0.562-4.743,1.079-8.582,1.449-10.309c0.159-0.74,0.316-1.526,0.472-2.348c0.342-0.008,0.536-0.019,0.536-0.019
			s-0.067-0.609-0.236-1.608c0.865-4.839,1.734-10.924,2.773-18.193c0.141-0.987,0.286-2.002,0.433-3.03
			c2.945,1.397,11.389,4.812,16.43,0.803c6.182-4.916,4.374-15.153-3.177-13.699c-5.461,1.051-10.504,7.048-12.878,10.288
			c0.666-4.615,1.397-9.575,2.217-14.772c0.138-0.874,0.296-1.79,0.469-2.739c2.902,2.143,10.011,6.634,15.501,3.897
			c7.069-3.524,7.427-13.913-0.261-14.06c-5.536-0.106-11.688,4.672-14.699,7.354c1.104-5.47,2.642-11.791,4.276-18.033
			c1.765,1.327,6.469,4.403,10.082,2.602c4.535-2.261,4.765-8.927-0.167-9.021c-3.588-0.069-7.569,3.053-9.479,4.764
			c1.316-4.967,2.674-9.829,3.903-14.116c2.031,1.439,6.283,3.917,9.61,2.259c4.535-2.261,4.765-8.927-0.167-9.021
			c-3.134-0.06-6.57,2.316-8.663,4.059c1.806-6.224,3.212-10.813,3.58-12.004c1.833-1.212,7.369-5.013,8.293-7.29
			c1.11-2.737-0.209-5.856-2.946-6.967c-2.737-1.11-5.856,0.209-6.966,2.946c-0.887,2.186,0.297,8.335,0.81,10.726l-0.328-0.102
			c-0.045,0.146-1.888,6.093-4.259,14.337c-0.087,0.087-0.147,0.149-0.147,0.149s0.03,0.026,0.084,0.071
			c-1.279,4.451-2.707,9.556-4.087,14.771c0.078-2.473-0.073-7.784-2.535-10.553c-3.278-3.687-8.194,0.819-6.965,5.736
			c1.099,4.397,7.764,5.843,9.162,6.1c-1.84,7.018-3.564,14.154-4.698,20.097c-0.165,0.165-0.256,0.259-0.256,0.259
			s0.066,0.057,0.179,0.15c-0.225,1.196-0.426,2.344-0.597,3.428c-1.168,7.393-2.157,14.319-3.029,20.428
			c-0.818,5.727-1.531,10.715-2.218,14.932c-1.02-4.088-3.003-9.59-6.638-12.267c-1.669-1.229-3.32-1.489-4.783-1.107
			c0.304-4.848-3.8-9.061-8.005-5.964c-5.088,3.748-6.243,14.233-6.243,14.233s5.211,0.306,9.307-1.52
			c-0.175,1.708,0.095,3.554,0.947,5.318c-0.862,0.05-1.771,0.367-2.686,1.041c-1.253,0.923-2.255,2.263-3.073,3.745
			c-1.128,0.406-2.161,1.088-3.057,1.984c-0.361-2.419-0.738-5.041-1.149-7.92c-0.717-5.021-1.53-10.713-2.49-16.79
			c-0.141-0.891-0.306-1.834-0.491-2.818c0.093-0.077,0.147-0.123,0.147-0.123s-0.075-0.078-0.211-0.213
			c-0.932-4.884-2.349-10.749-3.861-16.517c1.149-0.211,6.626-1.4,7.53-5.014c1.01-4.041-3.031-7.745-5.724-4.714
			c-2.023,2.276-2.147,6.64-2.083,8.673c-1.134-4.287-2.308-8.482-3.359-12.14c0.044-0.037,0.069-0.058,0.069-0.058
			s-0.05-0.051-0.121-0.122c-1.949-6.775-3.464-11.664-3.501-11.783l-0.27,0.084c0.422-1.965,1.394-7.019,0.665-8.815
			c-0.913-2.25-3.476-3.333-5.725-2.421c-2.25,0.913-3.334,3.476-2.421,5.726c0.759,1.872,5.309,4.995,6.816,5.992
			c0.302,0.979,1.457,4.751,2.942,9.866c-1.72-1.433-4.544-3.386-7.12-3.336c-4.054,0.078-3.865,5.556-0.138,7.414
			c2.735,1.363,6.229-0.674,7.899-1.856c1.01,3.523,2.126,7.519,3.208,11.601c-1.569-1.406-4.841-3.972-7.79-3.915
			c-4.054,0.078-3.865,5.556-0.137,7.414c2.969,1.48,6.835-1.048,8.286-2.139c1.343,5.13,2.606,10.325,3.514,14.821
			c-2.474-2.205-7.53-6.132-12.08-6.044c-6.319,0.121-6.024,8.66-0.214,11.556c4.512,2.25,10.354-1.442,12.74-3.203
			c0.143,0.78,0.272,1.533,0.386,2.251c0.674,4.272,1.275,8.348,1.823,12.141c-1.952-2.663-6.096-7.592-10.584-8.456
			c-6.206-1.195-7.692,7.219-2.611,11.259c4.143,3.295,11.083,0.488,13.504-0.66c0.121,0.845,0.24,1.679,0.356,2.49
			c0.461,3.227,0.881,6.161,1.282,8.812c-0.85,1.117-1.519,2.451-1.958,3.914c-2.202-2.672-5.608-6.042-9.249-6.743
			c-6.206-1.194-7.692,7.219-2.611,11.259c3.227,2.566,8.145,1.431,11.309,0.26c0.103,1.798,0.547,3.647,1.421,5.436
			c0.928,1.901,2.344,3.388,4.007,4.58c0.788,6.741,1.667,15.402,2.249,21.299h-9.513v40.194h37.323v-40.194h-12.367
			C444.81,398.277,445.51,391.274,446.238,384.471z M447.982,361.683c-0.14,0.727-0.28,1.421-0.421,2.081
			c-0.328,1.53-0.762,4.621-1.238,8.498c-1.281-1.931-3.164-3.211-5.298-3.311c-0.792-1.556-1.695-3.04-2.734-4.358
			c0.593-1.622,0.635-3.283,0.262-4.749C441.857,361.303,445.743,361.632,447.982,361.683z M427.8,382.588
			c0.449,0.268,0.908,0.52,1.382,0.751c-0.372,1.314-0.667,2.556-0.89,3.632C428.127,385.464,427.963,383.993,427.8,382.588z
			 M428.708,390.844c2.938,0.023,11.256-0.322,15.909-4.525c0.038,0,0.088,0.001,0.124,0c-0.658,6.221-1.274,12.412-1.703,16.807
			h-13.081C429.618,399.677,429.177,395.273,428.708,390.844z"/>
		<path style="fill:#7677F4;" d="M420.937,299.439c1.01-4.041-3.031-7.745-5.724-4.714c-2.694,3.031-2.02,9.765-2.02,9.765
			S419.926,303.48,420.937,299.439z"/>
		<path style="fill:#7677F4;" d="M420.929,334.5c0,0,10.497-1.574,12.071-7.872c1.574-6.298-4.723-12.071-8.922-7.347
			C419.879,324.004,420.929,334.5,420.929,334.5z"/>
		<path style="fill:#7677F4;" d="M410.464,376.093c-8.878-1.709-11.004,10.327-3.735,16.108c7.269,5.78,20.557-1.567,20.557-1.567
			S419.342,377.802,410.464,376.093z"/>
	</g>
</g>
<g id="Device_1_">
	<g>
		<path style="fill:#263238;stroke:#263238;stroke-linecap:round;stroke-linejoin:round;stroke-miterlimit:10;" d="M434.776,373.225
			H130.193c-5.247,0-9.5-4.253-9.5-9.5V123.533c0-5.247,4.253-9.5,9.5-9.5h304.582c5.247,0,9.5,4.253,9.5,9.5v240.192
			C444.276,368.972,440.022,373.225,434.776,373.225z"/>
		
			<rect x="225.022" y="188.204" style="fill:#B0B0B0;stroke:#263238;stroke-linecap:round;stroke-linejoin:round;stroke-miterlimit:10;" width="96.993" height="255.117"/>
		
			<rect x="225.022" y="184.944" style="fill:#263238;stroke:#263238;stroke-linecap:round;stroke-linejoin:round;stroke-miterlimit:10;" width="96.993" height="199.692"/>
		
			<rect x="198.125" y="433.54" style="fill:#B0B0B0;stroke:#263238;stroke-linecap:round;stroke-linejoin:round;stroke-miterlimit:10;" width="150.788" height="9.781"/>
		<path style="fill:#B0B0B0;stroke:#263238;stroke-linecap:round;stroke-linejoin:round;stroke-miterlimit:10;" d="M426.625,373.225
			H120.412c-5.247,0-9.5-4.253-9.5-9.5V123.533c0-5.247,4.253-9.5,9.5-9.5h306.212c5.247,0,9.5,4.253,9.5,9.5v240.192
			C436.125,368.972,431.872,373.225,426.625,373.225z"/>
		<rect x="121.907" y="122.796" style="fill:#FFFFFF;stroke:#263238;stroke-miterlimit:10;" width="303.223" height="241.666"/>
		
			<rect x="121.907" y="352.848" style="fill:#707070;stroke:#263238;stroke-linecap:round;stroke-linejoin:round;stroke-miterlimit:10;" width="303.223" height="11.614"/>
		
			<rect x="121.907" y="122.796" style="fill:#7677F4;stroke:#263238;stroke-linecap:round;stroke-linejoin:round;stroke-miterlimit:10;" width="303.223" height="16.878"/>
	</g>
</g>
<g id="Floor">
	<g>
		
			<line style="fill:none;stroke:#263238;stroke-linecap:round;stroke-linejoin:round;stroke-miterlimit:10;" x1="381.241" y1="443.321" x2="479.082" y2="443.321"/>
		
			<line style="fill:none;stroke:#263238;stroke-linecap:round;stroke-linejoin:round;stroke-miterlimit:10;" x1="31.786" y1="443.321" x2="377.341" y2="443.321"/>
	</g>
</g>
<g id="Character">
	<g>
		<g>
			<path style="fill:#FFFFFF;stroke:#263238;stroke-miterlimit:10;" d="M88.286,443.321H51.877c0,0-0.13-1.214-0.228-3.056
				c-0.261-4.491-0.367-12.691,1.916-15.853c3.203-4.458,18.127,3.48,18.127,3.48s6.814,6.195,10.612,7.825
				c3.806,1.63,4.89,0.538,5.437,3.26c0.09,0.465,0.171,0.897,0.236,1.288C88.286,442.196,88.286,443.321,88.286,443.321z"/>
			<path style="fill:#FFFFFF;stroke:#263238;stroke-miterlimit:10;" d="M88.286,443.321H51.877c0,0-0.13-1.214-0.228-3.056h36.328
				C88.286,442.196,88.286,443.321,88.286,443.321z"/>
		</g>
		<path style="fill:#263238;stroke:#263238;stroke-miterlimit:10;" d="M55.286,292.885l2.215,56.96c0,0-6.962,15.822-5.063,28.164
			c1.899,12.341-0.633,52.53-0.633,52.53s0.633,1.899,8.228,1.899s8.861-5.38,8.861-5.38s6.329-72.15,6.962-77.529
			c0.633-5.38,7.911-55.062,7.911-55.062L55.286,292.885z"/>
		<g>
			<path style="fill:#FFFFFF;stroke:#263238;stroke-miterlimit:10;" d="M98.095,443.321H61.686c0,0-0.13-1.214-0.228-3.056
				c-0.261-4.491-0.367-12.691,1.915-15.853c3.203-4.458,18.127,3.48,18.127,3.48s6.814,6.195,10.612,7.825
				c3.806,1.63,4.89,0.538,5.437,3.26c0.09,0.465,0.171,0.897,0.236,1.288C98.095,442.196,98.095,443.321,98.095,443.321z"/>
			<path style="fill:#FFFFFF;stroke:#263238;stroke-miterlimit:10;" d="M98.095,443.321H61.686c0,0-0.13-1.214-0.228-3.056h36.328
				C98.095,442.196,98.095,443.321,98.095,443.321z"/>
		</g>
		<path style="fill:#263238;stroke:#263238;stroke-miterlimit:10;" d="M86.223,291.076c0,0,3.265,22.377,2.178,32.702
			c-1.087,10.324-2.717,46.187-4.89,60.858c-2.174,14.671-3.749,37.602-3.749,37.602l1.739,1.304v4.347c0,0-7.39,1.739-10.433,2.174
			c-2.057,0.294-5.942,0.697-8.244,0.928c-0.917,0.092-1.654-0.733-1.468-1.636l1.017-4.943l1.14-5.898
			c0,0-6.085-37.681-4.998-44.202c1.087-6.521,4.89-21.735,4.89-23.365c0-1.63-5.434-29.886-6.521-34.776
			c-1.087-4.89-5.434-17.931-5.434-24.995C51.452,284.111,86.223,291.076,86.223,291.076z"/>
		<path style="fill:#FFFFFF;stroke:#263238;stroke-miterlimit:10;" d="M78.621,217.003c0,0,7.879,11.139,10.324,13.313
			c2.445,2.174,10.324,6.521,10.052,10.053c-0.272,3.532-1.087,7.607-5.434,9.509c-4.347,1.902-13.584-4.347-13.584-4.347
			L78.621,217.003z"/>
		<path style="fill:#FFFFFF;stroke:#263238;stroke-miterlimit:10;" d="M90.575,231.131c0,0-2.717,7.064-2.989,9.781
			c-0.272,2.717-0.543,7.336,1.63,9.238c2.174,1.902,5.706,2.988,7.336,2.988c1.63,0,2.174-10.867,2.445-12.769
			c0.272-1.902,1.902-5.977,0.272-7.879C97.639,230.588,92.749,230.316,90.575,231.131z"/>
		<g>
			<path style="fill:#FFFFFF;stroke:#263238;stroke-miterlimit:10;" d="M96.341,206.514c-1.912,0.793-3.994-0.785-5.145-2.508
				c-1.152-1.724-2.014-3.807-3.829-4.81c-0.566-0.313-1.251-0.55-1.532-1.133c-0.478-0.993,0.697-2.099,1.799-2.11
				s4.327,2.594,5.373,2.944c3.605,1.205,5.258-2.843,9.052-2.621c0.447,0.026,0.923,0.098,1.256,0.398
				c0.397,0.359,0.637,4.184,0.691,4.717c0.671,6.604-0.134,10.151-0.119,22.676c0.006,4.82,0.255,12.949,0.213,20.689
				c-0.017,3.136-0.353,4.87-4.911,7.387c-4.559,2.517-8.771-5.166-8.927-7.268c-0.24-3.252,1.189-7.092,1.88-10.227
				C93.646,227.832,96.221,213.507,96.341,206.514z"/>
			<path style="fill:#FFFFFF;stroke:#263238;stroke-miterlimit:10;" d="M94.475,195.456c0,0-0.189-0.292-0.493-0.695
				c-0.69-0.916-1.972-2.406-2.976-2.361c-1.447,0.066-5.892,3.128-4.853,4.452c1.04,1.324,4.747-1.587,4.747-1.587l2.391,4.396
				l3.66-0.519L94.475,195.456z"/>
			<path style="fill:#FFFFFF;stroke:#263238;stroke-miterlimit:10;" d="M95.083,194.99c0,0-2.203,0.977-1.993,4.667
				c0.21,3.69,1.902,4.149,2.619,3.739c0.496-0.284,3.37-0.792,5.095-1.078c0.74-0.123,1.329-0.69,1.471-1.427
				c0.155-0.806,0.457-2.116,1.041-4.216C104.613,192.006,95.083,194.99,95.083,194.99z"/>
			<path style="fill:none;stroke:#263238;stroke-miterlimit:10;" d="M96.656,194.788c0,0-1.839,3.623-0.089,8.065"/>
			<path style="fill:none;stroke:#263238;stroke-miterlimit:10;" d="M100.046,194.191c0,0-1.722,5.055-0.401,8.214"/>
			<path style="fill:none;stroke:#263238;stroke-miterlimit:10;" d="M97.639,204.777c0,0,0.116,0.576,1.763,1.529
				c1.647,0.953,3.44-0.35,3.769-0.416"/>
		</g>
		<path style="fill:#FFFFFF;stroke:#263238;stroke-miterlimit:10;" d="M64.164,188.472l-0.72,13.373l14.381,8.971l4.063-17.878
			l-11.493-24.986c0,0-3.199-1.918-5.764,3.578c-2.565,5.496,0.206,10.952,0.206,10.952L64.164,188.472z"/>
		<path style="fill:#263238;stroke:#263238;stroke-miterlimit:10;" d="M88.695,165.469l4.177,10.851l-2.82,1.929
			c0,0,2.628,11.878,1.019,14.27c-1.609,2.392-11.569,1.82-13.059,1.482c-1.49-0.339-8.259-20.741-8.259-20.741
			s-0.409-3.164-2.855-0.398c-2.446,2.766,2.373,8.31,2.373,8.31l-5.106,7.3c0,0-14.79-12.135-14.213-19.086
			c0.577-6.951,7.945-15.93,23.515-18.534c15.57-2.603,21.486,9.145,20.002,11.816C91.983,165.339,88.695,165.469,88.695,165.469z"
			/>
		<g>
			<path style="fill:#FFFFFF;stroke:#263238;stroke-miterlimit:10;" d="M88.353,182.689c-1.799,0.469-1.698,4.44-1.698,4.44
				s1.211,0.463,2.606-0.16c0.757-0.338,1.515-0.873,2.057-1.296c-0.152-1.273-0.35-2.547-0.543-3.674
				C89.987,182.236,89.101,182.494,88.353,182.689z"/>
			<path style="fill:#FFFFFF;stroke:#263238;stroke-miterlimit:10;" d="M77.16,169.616c-0.493,1.893-5.36,3.733-5.36,3.733
				l1.246,2.79c0,0,3.987,8.928,5.697,10.507c1.709,1.579,4.066,0.861,3.413,0.149c-0.653-0.712,0.582-3.941,3.402-5.87
				c1.683-1.151,3.44-1.858,4.587-2.243c-0.058-0.274-0.093-0.434-0.093-0.434l2.82-1.929l-4.177-10.851l-11.141-1.717
				C77.553,163.752,77.654,167.723,77.16,169.616z"/>
			<path style="fill:#263238;" d="M86.981,172.139c0.165,1.084-0.039,2.015-0.456,2.079c-0.417,0.063-0.889-0.764-1.054-1.849
				c-0.165-1.084,0.039-2.015,0.456-2.078C86.344,170.227,86.816,171.055,86.981,172.139z"/>
			<path style="fill:none;stroke:#263238;stroke-width:0.75;stroke-linecap:round;stroke-linejoin:round;stroke-miterlimit:10;" d="
				M86.928,167.807c0,0-1.638-1.521-2.926-0.117c-1.287,1.404-0.468,2.575-0.468,2.575"/>
		</g>
		<path style="fill:#FFFFFF;stroke:#263238;stroke-miterlimit:10;" d="M64.601,197.678c0,0-10.719,10.266-12.602,15.859
			c-1.882,5.593-4.339,54.361-3.347,62.574c0.992,8.213,2.068,18.258,2.068,18.258s2.763,3.159,9.227,3.646
			c27.705,2.086,26.277-6.939,26.277-6.939s-0.161-57.876-1.082-64.563c-0.921-6.687-8.795-19.589-12.308-22.792
			C69.32,200.519,64.601,197.678,64.601,197.678z"/>
		<g>
			<path style="fill:#7677F4;stroke:#263238;stroke-linecap:round;stroke-linejoin:round;stroke-miterlimit:10;" d="M77.513,213.413
				l6.184,11.066c0,0,2.604-2.929,1.627-5.208C84.348,216.993,77.513,213.413,77.513,213.413z"/>
			<polygon style="fill:#7677F4;stroke:#263238;stroke-linecap:round;stroke-linejoin:round;stroke-miterlimit:10;" points="
				83.697,224.48 81.317,274.994 86.467,285.777 89.847,272.58 84.999,223.503 			"/>
		</g>
		<polygon style="fill:#FFFFFF;stroke:#263238;stroke-miterlimit:10;" points="61.808,193.257 82.357,211.234 81.724,217.381 
			59.529,201.081 		"/>
		<path style="fill:#FFFFFF;stroke:#263238;stroke-miterlimit:10;" d="M58.574,261.567l25.352,43.161c0,0,3.814,9.647,4.744,9.91
			c0.93,0.263,6.466,0.924,6.466,0.924l2.804,1.094c0,0,1.874,0.831,2.122-0.404c0.249-1.235-1.587-10.633-2.517-10.896
			c-0.93-0.263-7.303-3.027-7.303-3.027L72.5,256.043L58.574,261.567z"/>
		<path style="fill:#FFFFFF;stroke:#263238;stroke-miterlimit:10;" d="M60.409,212.861c0,0-7.128,4.612-7.371,12.576
			c-0.243,7.964,1.579,14.304,2.274,16.107c0.695,1.803-1.606,4.969,0.353,7.631c1.958,2.663,3.866,10.833,3.866,10.833
			l12.416-2.715c0,0-2.405-5.701-0.949-7.298c1.456-1.597,3.231-2.902,3.061-6.565c-0.169-3.663,0.272-7.354,0.812-8.908
			C75.41,232.967,75.67,212.155,60.409,212.861z"/>
		<path style="fill:#FFFFFF;stroke:#263238;stroke-miterlimit:10;" d="M56.309,256.487l2.419,6.006l15.135-3.453l-1.574-7.574
			C72.288,251.465,59.234,253.598,56.309,256.487z"/>
	</g>
</g>
<g id="Profile_3">
	<g>
		
			<rect x="290.767" y="207.889" style="fill:#263238;stroke:#263238;stroke-linecap:round;stroke-linejoin:round;stroke-miterlimit:10;" width="124.317" height="138.943"/>
		<g>
			
				<rect x="285.78" y="201.305" style="fill:#FFFFFF;stroke:#263238;stroke-linecap:round;stroke-linejoin:round;stroke-miterlimit:10;" width="126.28" height="142.065"/>
			
				<rect x="314.18" y="201.305" style="fill:#FFFFFF;stroke:#263238;stroke-linecap:round;stroke-linejoin:round;stroke-miterlimit:10;" width="97.88" height="142.065"/>
			<rect x="285.78" y="201.305" style="fill:#263238;stroke:#263238;stroke-miterlimit:10;" width="126.28" height="9.57"/>
			<g>
				<rect x="319.628" y="215.718" style="fill:#7677F4;stroke:#263238;stroke-miterlimit:10;" width="24.821" height="30.27"/>
				<g>
					<path style="fill:#263238;stroke:#263238;stroke-linecap:round;stroke-linejoin:round;stroke-miterlimit:10;" d="
						M324.571,224.841c0,0,0.55,8.247-0.55,8.797c-1.1,0.55-2.016,0.367-2.016,0.367s1.1,2.382,3.665,3.299
						c2.566,0.916,4.582-1.466,4.582-1.466l-2.749-11.362L324.571,224.841z"/>
					<polygon style="fill:#FFFFFF;stroke:#263238;stroke-linecap:round;stroke-linejoin:round;stroke-miterlimit:10;" points="
						319.628,245.988 323.341,238.102 334.192,236.464 341.768,240.354 344.449,245.988 					"/>
					<polygon style="fill:#FFFFFF;stroke:#263238;stroke-linecap:round;stroke-linejoin:round;stroke-miterlimit:10;" points="
						325.38,238.064 326.979,243.747 335.503,237.887 332.451,235.47 					"/>
					<polygon style="fill:#FFFFFF;stroke:#263238;stroke-linecap:round;stroke-linejoin:round;stroke-miterlimit:10;" points="
						334.807,232.779 334.192,236.464 327.641,241.173 326.822,236.669 					"/>
					<path style="fill:#FFFFFF;stroke:#263238;stroke-linecap:round;stroke-linejoin:round;stroke-miterlimit:10;" d="
						M324.729,226.98c0,0-0.38,8.542,2.399,10.047c2.779,1.505,8.503-3.596,9.145-4.241c0.641-0.645,4.062-1.505,4.062-4.3
						c0-2.795-2.138-2.15-2.138-2.15s1.283-3.655,0.641-5.16c-0.641-1.505-9.505-2.035-12.284-0.314
						C323.775,222.581,324.729,226.98,324.729,226.98z"/>
					<path style="fill:#263238;stroke:#263238;stroke-linecap:round;stroke-linejoin:round;stroke-miterlimit:10;" d="
						M333.368,224.841c0,0-1.466,1.466,0,3.299c1.466,1.833,1.466,4.398,1.283,5.681c-0.183,1.283-2.199,1.649-2.199,1.649
						s0.55,1.1,2.932,1.833c2.382,0.733,6.162,0.281,7.445-3.384c1.283-3.665-1.764-11.277-2.864-13.293
						c-1.099-2.016-7.514-3.665-11.729-2.749c-4.215,0.916-5.865,3.482-5.498,5.131c0.366,1.649,1.466,2.566,4.215,2.566
						C329.702,225.574,333.368,224.841,333.368,224.841z"/>
					<path style="fill:none;stroke:#263238;stroke-linecap:round;stroke-linejoin:round;stroke-miterlimit:10;" d="M325.709,227.061
						c0,0,0.995-0.459,1.837,0.306"/>
					<polyline style="fill:none;stroke:#263238;stroke-linecap:round;stroke-linejoin:round;stroke-miterlimit:10;" points="
						327.641,228.889 327.052,231.771 328.895,231.566 					"/>
					<path style="fill:#263238;" d="M330.767,229.23c0,0.417-0.199,0.756-0.444,0.756c-0.246,0-0.445-0.338-0.445-0.756
						s0.199-0.756,0.445-0.756C330.568,228.475,330.767,228.813,330.767,229.23z"/>
					<path style="fill:#263238;" d="M326.944,228.875c0,0.417-0.199,0.756-0.445,0.756c-0.246,0-0.444-0.338-0.444-0.756
						c0-0.417,0.199-0.756,0.444-0.756C326.745,228.119,326.944,228.458,326.944,228.875z"/>
					<path style="fill:none;stroke:#263238;stroke-linecap:round;stroke-linejoin:round;stroke-miterlimit:10;" d="M329.434,227.408
						c0,0,1.245-0.267,2.401,0.445"/>
					<path style="fill:none;stroke:#263238;stroke-linecap:round;stroke-linejoin:round;stroke-miterlimit:10;" d="M327.033,234.076
						c0,0,2.312,0.533,3.734-0.711"/>
				</g>
			</g>
			
				<rect x="350.498" y="215.512" style="fill:#FFFFFF;stroke:#263238;stroke-linecap:round;stroke-linejoin:round;stroke-miterlimit:10;" width="56.037" height="11.049"/>
			<g>
				<polygon style="fill:#7677F4;" points="360.023,216.635 360.914,219.375 363.796,219.375 361.464,221.069 362.355,223.81 
					360.023,222.116 357.692,223.81 358.583,221.069 356.251,219.375 359.133,219.375 				"/>
				<polygon style="fill:#7677F4;" points="370.064,216.635 370.954,219.375 373.836,219.375 371.505,221.069 372.395,223.81 
					370.064,222.116 367.733,223.81 368.623,221.069 366.292,219.375 369.173,219.375 				"/>
				<polygon style="fill:#7677F4;" points="380.104,216.635 380.995,219.375 383.876,219.375 381.545,221.069 382.436,223.81 
					380.104,222.116 377.773,223.81 378.663,221.069 376.332,219.375 379.214,219.375 				"/>
				<polygon style="fill:#DBDBDB;" points="390.145,216.635 391.035,219.375 393.917,219.375 391.586,221.069 392.476,223.81 
					390.145,222.116 387.813,223.81 388.704,221.069 386.373,219.375 389.254,219.375 				"/>
				<polygon style="fill:#DBDBDB;" points="400.185,216.635 401.076,219.375 403.957,219.375 401.626,221.069 402.516,223.81 
					400.185,222.116 397.854,223.81 398.744,221.069 396.413,219.375 399.295,219.375 				"/>
			</g>
			
				<rect x="350.498" y="232.086" style="fill:#FFFFFF;stroke:#263238;stroke-linecap:round;stroke-linejoin:round;stroke-miterlimit:10;" width="56.037" height="61.561"/>
			
				<rect x="350.498" y="298.383" style="fill:#FFFFFF;stroke:#263238;stroke-linecap:round;stroke-linejoin:round;stroke-miterlimit:10;" width="56.037" height="41.041"/>
			
				<line style="fill:none;stroke:#263238;stroke-linecap:round;stroke-linejoin:round;stroke-miterlimit:10;" x1="320.621" y1="253.658" x2="342.408" y2="253.658"/>
			
				<line style="fill:none;stroke:#263238;stroke-linecap:round;stroke-linejoin:round;stroke-miterlimit:10;" x1="320.621" y1="278.914" x2="342.408" y2="278.914"/>
			
				<line style="fill:none;stroke:#263238;stroke-linecap:round;stroke-linejoin:round;stroke-miterlimit:10;" x1="288.158" y1="252.583" x2="309.945" y2="252.583"/>
			
				<line style="fill:none;stroke:#263238;stroke-linecap:round;stroke-linejoin:round;stroke-miterlimit:10;" x1="288.158" y1="227.694" x2="309.945" y2="227.694"/>
			
				<line style="fill:none;stroke:#263238;stroke-linecap:round;stroke-linejoin:round;stroke-miterlimit:10;" x1="288.158" y1="219.038" x2="309.945" y2="219.038"/>
			
				<line style="fill:none;stroke:#263238;stroke-linecap:round;stroke-linejoin:round;stroke-miterlimit:10;" x1="320.621" y1="286.28" x2="342.408" y2="286.28"/>
			
				<line style="fill:none;stroke:#263238;stroke-linecap:round;stroke-linejoin:round;stroke-miterlimit:10;" x1="320.621" y1="293.646" x2="342.408" y2="293.646"/>
			
				<line style="fill:none;stroke:#263238;stroke-linecap:round;stroke-linejoin:round;stroke-miterlimit:10;" x1="320.621" y1="301.013" x2="342.408" y2="301.013"/>
			
				<line style="fill:none;stroke:#263238;stroke-linecap:round;stroke-linejoin:round;stroke-miterlimit:10;" x1="320.621" y1="308.379" x2="342.408" y2="308.379"/>
			
				<line style="fill:none;stroke:#263238;stroke-linecap:round;stroke-linejoin:round;stroke-miterlimit:10;" x1="320.621" y1="315.745" x2="342.408" y2="315.745"/>
			
				<line style="fill:none;stroke:#263238;stroke-linecap:round;stroke-linejoin:round;stroke-miterlimit:10;" x1="320.621" y1="323.112" x2="342.408" y2="323.112"/>
			
				<line style="fill:none;stroke:#263238;stroke-linecap:round;stroke-linejoin:round;stroke-miterlimit:10;" x1="320.621" y1="330.478" x2="342.408" y2="330.478"/>
			
				<line style="fill:none;stroke:#263238;stroke-linecap:round;stroke-linejoin:round;stroke-miterlimit:10;" x1="320.621" y1="256.632" x2="335.044" y2="256.632"/>
			
				<rect x="314.719" y="264.182" style="fill:#7677F4;stroke:#263238;stroke-linecap:round;stroke-linejoin:round;stroke-miterlimit:10;" width="35.779" height="9.471"/>
			
				<rect x="286.306" y="234.717" style="fill:#7677F4;stroke:#263238;stroke-linecap:round;stroke-linejoin:round;stroke-miterlimit:10;" width="28.046" height="9.471"/>
			
				<line style="fill:none;stroke:#263238;stroke-linecap:round;stroke-linejoin:round;stroke-miterlimit:10;" x1="354.181" y1="237.348" x2="381.542" y2="237.348"/>
			
				<line style="fill:none;stroke:#263238;stroke-linecap:round;stroke-linejoin:round;stroke-miterlimit:10;" x1="354.181" y1="306.802" x2="381.542" y2="306.802"/>
			<g>
				
					<line style="fill:none;stroke:#263238;stroke-linecap:round;stroke-linejoin:round;stroke-miterlimit:10;" x1="354.181" y1="247.871" x2="369.44" y2="247.871"/>
				
					<line style="fill:none;stroke:#263238;stroke-linecap:round;stroke-linejoin:round;stroke-miterlimit:10;" x1="354.181" y1="255.237" x2="369.44" y2="255.237"/>
				
					<line style="fill:none;stroke:#263238;stroke-linecap:round;stroke-linejoin:round;stroke-miterlimit:10;" x1="354.181" y1="262.604" x2="369.44" y2="262.604"/>
				
					<line style="fill:none;stroke:#263238;stroke-linecap:round;stroke-linejoin:round;stroke-miterlimit:10;" x1="354.181" y1="269.97" x2="369.44" y2="269.97"/>
				
					<line style="fill:none;stroke:#263238;stroke-linecap:round;stroke-linejoin:round;stroke-miterlimit:10;" x1="354.181" y1="277.336" x2="369.44" y2="277.336"/>
				
					<line style="fill:none;stroke:#263238;stroke-linecap:round;stroke-linejoin:round;stroke-miterlimit:10;" x1="354.181" y1="284.703" x2="369.44" y2="284.703"/>
			</g>
			<g>
				
					<line style="fill:none;stroke:#263238;stroke-linecap:round;stroke-linejoin:round;stroke-miterlimit:10;" x1="376.28" y1="247.871" x2="391.539" y2="247.871"/>
				
					<line style="fill:none;stroke:#263238;stroke-linecap:round;stroke-linejoin:round;stroke-miterlimit:10;" x1="376.28" y1="255.237" x2="391.539" y2="255.237"/>
				
					<line style="fill:none;stroke:#263238;stroke-linecap:round;stroke-linejoin:round;stroke-miterlimit:10;" x1="376.28" y1="262.604" x2="391.539" y2="262.604"/>
				
					<line style="fill:none;stroke:#263238;stroke-linecap:round;stroke-linejoin:round;stroke-miterlimit:10;" x1="376.28" y1="269.97" x2="391.539" y2="269.97"/>
				
					<line style="fill:none;stroke:#263238;stroke-linecap:round;stroke-linejoin:round;stroke-miterlimit:10;" x1="376.28" y1="277.336" x2="391.539" y2="277.336"/>
				
					<line style="fill:none;stroke:#263238;stroke-linecap:round;stroke-linejoin:round;stroke-miterlimit:10;" x1="376.28" y1="284.703" x2="391.539" y2="284.703"/>
			</g>
			
				<line style="fill:none;stroke:#263238;stroke-linecap:round;stroke-linejoin:round;stroke-miterlimit:10;" x1="354.181" y1="240.505" x2="393.118" y2="240.505"/>
			
				<rect x="350.498" y="312.063" style="fill:#263238;stroke:#263238;stroke-linecap:round;stroke-linejoin:round;stroke-miterlimit:10;" width="55.774" height="3.157"/>
			<g>
				
					<line style="fill:none;stroke:#FFFFFF;stroke-linecap:round;stroke-linejoin:round;stroke-miterlimit:10;" x1="305.774" y1="203.673" x2="305.774" y2="208.408"/>
				
					<line style="fill:none;stroke:#FFFFFF;stroke-linecap:round;stroke-linejoin:round;stroke-miterlimit:10;" x1="335.415" y1="203.673" x2="335.415" y2="208.408"/>
				
					<line style="fill:none;stroke:#FFFFFF;stroke-linecap:round;stroke-linejoin:round;stroke-miterlimit:10;" x1="365.055" y1="203.673" x2="365.055" y2="208.408"/>
				
					<line style="fill:none;stroke:#FFFFFF;stroke-linecap:round;stroke-linejoin:round;stroke-miterlimit:10;" x1="394.696" y1="203.673" x2="394.696" y2="208.408"/>
			</g>
		</g>
	</g>
</g>
<g id="Profile_1">
	<g>
		
			<rect x="139.486" y="165.175" style="fill:#263238;stroke:#263238;stroke-linecap:round;stroke-linejoin:round;stroke-miterlimit:10;" width="124.317" height="138.943"/>
		<g>
			
				<rect x="134.44" y="158.153" style="fill:#FFFFFF;stroke:#263238;stroke-linecap:round;stroke-linejoin:round;stroke-miterlimit:10;" width="126.28" height="142.065"/>
			
				<rect x="162.84" y="158.153" style="fill:#FFFFFF;stroke:#263238;stroke-linecap:round;stroke-linejoin:round;stroke-miterlimit:10;" width="97.88" height="142.065"/>
			<rect x="134.44" y="158.153" style="fill:#263238;stroke:#263238;stroke-miterlimit:10;" width="126.28" height="9.57"/>
			<g>
				<rect x="168.288" y="172.565" style="fill:#7677F4;stroke:#263238;stroke-miterlimit:10;" width="24.821" height="30.27"/>
				<g>
					<polygon style="fill:#FFFFFF;stroke:#263238;stroke-linecap:round;stroke-linejoin:round;stroke-miterlimit:10;" points="
						168.288,202.835 172.001,194.949 182.852,193.311 190.428,197.201 193.109,202.835 					"/>
					<polygon style="fill:#FFFFFF;stroke:#263238;stroke-linecap:round;stroke-linejoin:round;stroke-miterlimit:10;" points="
						174.04,194.912 175.639,200.594 184.163,194.734 181.111,192.318 					"/>
					<polygon style="fill:#A1A1A1;stroke:#263238;stroke-linecap:round;stroke-linejoin:round;stroke-miterlimit:10;" points="
						183.467,189.626 182.852,193.311 176.301,198.02 175.482,193.516 					"/>
					<path style="fill:#263238;" d="M173.421,183.069c0,0-1.611-1.983-0.868-4.463c0.744-2.479,4.215-4.463,8.925-4.463
						s7.066,2.975,7.81,6.074c0.744,3.099-2.231,7.438-3.099,7.686c-0.868,0.248-1.24,0.744-1.983,0.248
						c-0.744-0.496-0.992-7.19-2.727-7.562s-6.322,0.248-6.322,0.248L173.421,183.069z"/>
					<path style="fill:#A1A1A1;stroke:#263238;stroke-linecap:round;stroke-linejoin:round;stroke-miterlimit:10;" d="
						M173.389,183.827c0,0-0.38,8.542,2.399,10.047c2.779,1.505,8.503-3.596,9.145-4.241c0.641-0.645,2.62-0.545,2.62-3.34
						c0-2.795-2.851-1.488-2.851-1.488s-1.889-0.63-2.107-1.488c-0.232-0.912,1.198-2.075,0.868-2.851
						c-0.641-1.505-4.907-3.704-7.686-1.983C172.997,180.203,173.389,183.827,173.389,183.827z"/>
					<path style="fill:none;stroke:#263238;stroke-linecap:round;stroke-linejoin:round;stroke-miterlimit:10;" d="M174.369,183.908
						c0,0,0.995-0.459,1.837,0.306"/>
					<polyline style="fill:none;stroke:#263238;stroke-linecap:round;stroke-linejoin:round;stroke-miterlimit:10;" points="
						176.301,185.736 175.712,188.618 177.555,188.413 					"/>
					<path style="fill:#263238;" d="M179.428,186.078c0,0.417-0.199,0.756-0.445,0.756s-0.445-0.338-0.445-0.756
						c0-0.417,0.199-0.756,0.445-0.756S179.428,185.66,179.428,186.078z"/>
					<path style="fill:#263238;" d="M175.604,185.722c0,0.417-0.199,0.756-0.445,0.756c-0.246,0-0.445-0.338-0.445-0.756
						s0.199-0.756,0.445-0.756C175.405,184.966,175.604,185.305,175.604,185.722z"/>
					<path style="fill:none;stroke:#263238;stroke-linecap:round;stroke-linejoin:round;stroke-miterlimit:10;" d="M178.094,184.255
						c0,0,1.245-0.267,2.401,0.445"/>
					<path style="fill:none;stroke:#263238;stroke-linecap:round;stroke-linejoin:round;stroke-miterlimit:10;" d="M175.693,190.923
						c0,0,2.312,0.534,3.734-0.711"/>
				</g>
			</g>
			
				<rect x="199.158" y="172.359" style="fill:#FFFFFF;stroke:#263238;stroke-linecap:round;stroke-linejoin:round;stroke-miterlimit:10;" width="56.037" height="11.049"/>
			<g>
				<polygon style="fill:#7677F4;" points="205.729,174.042 206.62,176.782 209.501,176.782 207.17,178.476 208.06,181.217 
					205.729,179.523 203.398,181.217 204.288,178.476 201.957,176.782 204.839,176.782 				"/>
				<polygon style="fill:#919191;" points="215.77,174.042 216.66,176.782 219.542,176.782 217.21,178.476 218.101,181.217 
					215.77,179.523 213.438,181.217 214.329,178.476 211.997,176.782 214.879,176.782 				"/>
				<polygon style="fill:#919191;" points="225.81,174.042 226.701,176.782 229.582,176.782 227.251,178.476 228.141,181.217 
					225.81,179.523 223.479,181.217 224.369,178.476 222.038,176.782 224.919,176.782 				"/>
				<polygon style="fill:#919191;" points="235.85,174.042 236.741,176.782 239.622,176.782 237.291,178.476 238.182,181.217 
					235.85,179.523 233.519,181.217 234.41,178.476 232.078,176.782 234.96,176.782 				"/>
				<polygon style="fill:#919191;" points="245.891,174.042 246.781,176.782 249.663,176.782 247.332,178.476 248.222,181.217 
					245.891,179.523 243.56,181.217 244.45,178.476 242.119,176.782 245,176.782 				"/>
			</g>
			
				<rect x="199.158" y="188.933" style="fill:#FFFFFF;stroke:#263238;stroke-linecap:round;stroke-linejoin:round;stroke-miterlimit:10;" width="56.037" height="61.561"/>
			
				<rect x="199.158" y="255.23" style="fill:#FFFFFF;stroke:#263238;stroke-linecap:round;stroke-linejoin:round;stroke-miterlimit:10;" width="56.037" height="41.041"/>
			
				<line style="fill:none;stroke:#263238;stroke-linecap:round;stroke-linejoin:round;stroke-miterlimit:10;" x1="169.281" y1="210.505" x2="191.068" y2="210.505"/>
			
				<line style="fill:none;stroke:#263238;stroke-linecap:round;stroke-linejoin:round;stroke-miterlimit:10;" x1="169.281" y1="235.761" x2="191.068" y2="235.761"/>
			
				<line style="fill:none;stroke:#263238;stroke-linecap:round;stroke-linejoin:round;stroke-miterlimit:10;" x1="136.818" y1="209.43" x2="158.605" y2="209.43"/>
			
				<line style="fill:none;stroke:#263238;stroke-linecap:round;stroke-linejoin:round;stroke-miterlimit:10;" x1="136.818" y1="184.542" x2="158.605" y2="184.542"/>
			
				<line style="fill:none;stroke:#263238;stroke-linecap:round;stroke-linejoin:round;stroke-miterlimit:10;" x1="136.818" y1="175.885" x2="158.605" y2="175.885"/>
			
				<line style="fill:none;stroke:#263238;stroke-linecap:round;stroke-linejoin:round;stroke-miterlimit:10;" x1="169.281" y1="243.127" x2="191.068" y2="243.127"/>
			
				<line style="fill:none;stroke:#263238;stroke-linecap:round;stroke-linejoin:round;stroke-miterlimit:10;" x1="169.281" y1="250.494" x2="191.068" y2="250.494"/>
			
				<line style="fill:none;stroke:#263238;stroke-linecap:round;stroke-linejoin:round;stroke-miterlimit:10;" x1="169.281" y1="257.86" x2="191.068" y2="257.86"/>
			
				<line style="fill:none;stroke:#263238;stroke-linecap:round;stroke-linejoin:round;stroke-miterlimit:10;" x1="169.281" y1="265.226" x2="191.068" y2="265.226"/>
			
				<line style="fill:none;stroke:#263238;stroke-linecap:round;stroke-linejoin:round;stroke-miterlimit:10;" x1="169.281" y1="272.593" x2="191.068" y2="272.593"/>
			
				<line style="fill:none;stroke:#263238;stroke-linecap:round;stroke-linejoin:round;stroke-miterlimit:10;" x1="169.281" y1="279.959" x2="191.068" y2="279.959"/>
			
				<line style="fill:none;stroke:#263238;stroke-linecap:round;stroke-linejoin:round;stroke-miterlimit:10;" x1="169.281" y1="287.325" x2="191.068" y2="287.325"/>
			
				<line style="fill:none;stroke:#263238;stroke-linecap:round;stroke-linejoin:round;stroke-miterlimit:10;" x1="169.281" y1="213.479" x2="183.705" y2="213.479"/>
			
				<rect x="163.379" y="221.029" style="fill:#7677F4;stroke:#263238;stroke-linecap:round;stroke-linejoin:round;stroke-miterlimit:10;" width="35.779" height="9.471"/>
			
				<rect x="134.966" y="191.564" style="fill:#7677F4;stroke:#263238;stroke-linecap:round;stroke-linejoin:round;stroke-miterlimit:10;" width="28.046" height="9.471"/>
			
				<line style="fill:none;stroke:#263238;stroke-linecap:round;stroke-linejoin:round;stroke-miterlimit:10;" x1="202.841" y1="194.195" x2="230.202" y2="194.195"/>
			
				<line style="fill:none;stroke:#263238;stroke-linecap:round;stroke-linejoin:round;stroke-miterlimit:10;" x1="202.841" y1="263.649" x2="230.202" y2="263.649"/>
			<g>
				
					<line style="fill:none;stroke:#263238;stroke-linecap:round;stroke-linejoin:round;stroke-miterlimit:10;" x1="202.841" y1="204.718" x2="218.1" y2="204.718"/>
				
					<line style="fill:none;stroke:#263238;stroke-linecap:round;stroke-linejoin:round;stroke-miterlimit:10;" x1="202.841" y1="212.085" x2="218.1" y2="212.085"/>
				
					<line style="fill:none;stroke:#263238;stroke-linecap:round;stroke-linejoin:round;stroke-miterlimit:10;" x1="202.841" y1="219.451" x2="218.1" y2="219.451"/>
				
					<line style="fill:none;stroke:#263238;stroke-linecap:round;stroke-linejoin:round;stroke-miterlimit:10;" x1="202.841" y1="226.817" x2="218.1" y2="226.817"/>
				
					<line style="fill:none;stroke:#263238;stroke-linecap:round;stroke-linejoin:round;stroke-miterlimit:10;" x1="202.841" y1="234.184" x2="218.1" y2="234.184"/>
				
					<line style="fill:none;stroke:#263238;stroke-linecap:round;stroke-linejoin:round;stroke-miterlimit:10;" x1="202.841" y1="241.55" x2="218.1" y2="241.55"/>
			</g>
			<g>
				
					<line style="fill:none;stroke:#263238;stroke-linecap:round;stroke-linejoin:round;stroke-miterlimit:10;" x1="224.94" y1="204.718" x2="240.199" y2="204.718"/>
				
					<line style="fill:none;stroke:#263238;stroke-linecap:round;stroke-linejoin:round;stroke-miterlimit:10;" x1="224.94" y1="212.085" x2="240.199" y2="212.085"/>
				
					<line style="fill:none;stroke:#263238;stroke-linecap:round;stroke-linejoin:round;stroke-miterlimit:10;" x1="224.94" y1="219.451" x2="240.199" y2="219.451"/>
				
					<line style="fill:none;stroke:#263238;stroke-linecap:round;stroke-linejoin:round;stroke-miterlimit:10;" x1="224.94" y1="226.817" x2="240.199" y2="226.817"/>
				
					<line style="fill:none;stroke:#263238;stroke-linecap:round;stroke-linejoin:round;stroke-miterlimit:10;" x1="224.94" y1="234.184" x2="240.199" y2="234.184"/>
				
					<line style="fill:none;stroke:#263238;stroke-linecap:round;stroke-linejoin:round;stroke-miterlimit:10;" x1="224.94" y1="241.55" x2="240.199" y2="241.55"/>
			</g>
			
				<line style="fill:none;stroke:#263238;stroke-linecap:round;stroke-linejoin:round;stroke-miterlimit:10;" x1="202.841" y1="197.352" x2="241.778" y2="197.352"/>
			
				<rect x="199.158" y="268.91" style="fill:#263238;stroke:#263238;stroke-linecap:round;stroke-linejoin:round;stroke-miterlimit:10;" width="55.774" height="3.157"/>
			<g>
				
					<line style="fill:none;stroke:#FFFFFF;stroke-linecap:round;stroke-linejoin:round;stroke-miterlimit:10;" x1="154.434" y1="160.52" x2="154.434" y2="165.256"/>
				
					<line style="fill:none;stroke:#FFFFFF;stroke-linecap:round;stroke-linejoin:round;stroke-miterlimit:10;" x1="184.075" y1="160.52" x2="184.075" y2="165.256"/>
				
					<line style="fill:none;stroke:#FFFFFF;stroke-linecap:round;stroke-linejoin:round;stroke-miterlimit:10;" x1="213.716" y1="160.52" x2="213.716" y2="165.256"/>
				
					<line style="fill:none;stroke:#FFFFFF;stroke-linecap:round;stroke-linejoin:round;stroke-miterlimit:10;" x1="243.356" y1="160.52" x2="243.356" y2="165.256"/>
			</g>
		</g>
	</g>
</g>
<g id="Profile_2">
	<g>
		
			<rect x="223.33" y="114.772" style="fill:#263238;stroke:#263238;stroke-linecap:round;stroke-linejoin:round;stroke-miterlimit:10;" width="122.527" height="113.713"/>
		<g>
			<g>
				
					<rect x="217.094" y="84.348" style="fill:#FFFFFF;stroke:#263238;stroke-linecap:round;stroke-linejoin:round;stroke-miterlimit:10;" width="126.28" height="142.065"/>
				
					<rect x="245.494" y="84.348" style="fill:#FFFFFF;stroke:#263238;stroke-linecap:round;stroke-linejoin:round;stroke-miterlimit:10;" width="97.88" height="142.065"/>
				<rect x="217.094" y="84.348" style="fill:#263238;stroke:#263238;stroke-miterlimit:10;" width="126.28" height="9.57"/>
				<g>
					<rect x="250.943" y="98.76" style="fill:#7677F4;stroke:#263238;stroke-miterlimit:10;" width="24.821" height="30.27"/>
					<g>
						<polygon style="fill:#263238;stroke:#263238;stroke-linecap:round;stroke-linejoin:round;stroke-miterlimit:10;" points="
							250.943,129.03 255.075,122.033 267.151,120.21 275.581,124.539 275.764,129.03 						"/>
						<polygon style="fill:#FFFFFF;stroke:#263238;stroke-linecap:round;stroke-linejoin:round;stroke-miterlimit:10;" points="
							267.834,116.109 267.151,120.21 259.86,125.451 258.948,120.438 						"/>
						<path style="fill:#FFFFFF;stroke:#263238;stroke-linecap:round;stroke-linejoin:round;stroke-miterlimit:10;" d="
							M257.353,109.274c0,0-1.823,10.481,1.139,12.076c2.962,1.595,10.481-5.24,11.164-5.924c0.683-0.684,4.329-1.595,4.329-4.557
							s-2.279-2.278-2.279-2.278s1.367-3.873,0.684-5.468c-0.684-1.595-12.987-2.734-15.949-0.911
							C253.48,104.033,257.353,109.274,257.353,109.274z"/>
						<path style="fill:#263238;stroke:#263238;stroke-linecap:round;stroke-linejoin:round;stroke-miterlimit:10;" d="
							M272.391,103.122c-0.684-1.595-12.987-2.734-15.949-0.911c-2.962,1.823,0.911,7.063,0.911,7.063s1.367,0.911,5.013,0
							c3.645-0.911,6.152-1.823,6.152-1.823s-2.962,3.418-1.595,3.645c1.367,0.228,1.367,0.228,1.367,0.228l0.456,2.506l2.962-5.24
							C271.707,108.59,273.075,104.717,272.391,103.122z"/>
						<polyline style="fill:none;stroke:#263238;stroke-linecap:round;stroke-linejoin:round;stroke-miterlimit:10;" points="
							259.86,111.78 258.849,116.585 260.9,116.358 						"/>
						<path style="fill:#263238;" d="M263.339,112.16c0,0.465-0.221,0.841-0.495,0.841c-0.273,0-0.495-0.376-0.495-0.841
							c0-0.464,0.222-0.841,0.495-0.841C263.118,111.319,263.339,111.696,263.339,112.16z"/>
						<path style="fill:#263238;" d="M259.085,111.765c0,0.464-0.221,0.841-0.495,0.841c-0.273,0-0.495-0.377-0.495-0.841
							c0-0.465,0.221-0.841,0.495-0.841C258.863,110.923,259.085,111.3,259.085,111.765z"/>
						<path style="fill:none;stroke:#263238;stroke-linecap:round;stroke-linejoin:round;stroke-miterlimit:10;" d="
							M261.855,110.132c0,0,1.385-0.297,2.672,0.495"/>
						<path style="fill:none;stroke:#263238;stroke-linecap:round;stroke-linejoin:round;stroke-miterlimit:10;" d="
							M259.184,117.553c0,0,2.573,0.594,4.156-0.792"/>
					</g>
				</g>
				
					<rect x="281.813" y="98.554" style="fill:#FFFFFF;stroke:#263238;stroke-linecap:round;stroke-linejoin:round;stroke-miterlimit:10;" width="56.037" height="11.049"/>
				<g>
					<polygon style="fill:#7677F4;" points="289.801,100.157 290.692,102.898 293.574,102.898 291.242,104.591 292.133,107.332 
						289.801,105.638 287.47,107.332 288.361,104.591 286.029,102.898 288.911,102.898 					"/>
					<polygon style="fill:#7677F4;" points="299.842,100.157 300.732,102.898 303.614,102.898 301.283,104.591 302.173,107.332 
						299.842,105.638 297.511,107.332 298.401,104.591 296.07,102.898 298.951,102.898 					"/>
					<polygon style="fill:#7677F4;" points="309.882,100.157 310.773,102.898 313.654,102.898 311.323,104.591 312.214,107.332 
						309.882,105.638 307.551,107.332 308.442,104.591 306.11,102.898 308.992,102.898 					"/>
					<polygon style="fill:#7677F4;" points="319.923,100.157 320.813,102.898 323.695,102.898 321.364,104.591 322.254,107.332 
						319.923,105.638 317.591,107.332 318.482,104.591 316.151,102.898 319.032,102.898 					"/>
					<polygon style="fill:#DBDBDB;" points="329.963,100.157 330.854,102.898 333.735,102.898 331.404,104.591 332.295,107.332 
						329.963,105.638 327.632,107.332 328.522,104.591 326.191,102.898 329.073,102.898 					"/>
				</g>
				
					<rect x="281.813" y="115.128" style="fill:#FFFFFF;stroke:#263238;stroke-linecap:round;stroke-linejoin:round;stroke-miterlimit:10;" width="56.037" height="61.561"/>
				
					<rect x="281.813" y="181.425" style="fill:#FFFFFF;stroke:#263238;stroke-linecap:round;stroke-linejoin:round;stroke-miterlimit:10;" width="56.037" height="41.041"/>
				
					<line style="fill:none;stroke:#263238;stroke-linecap:round;stroke-linejoin:round;stroke-miterlimit:10;" x1="251.935" y1="136.7" x2="273.722" y2="136.7"/>
				
					<line style="fill:none;stroke:#263238;stroke-linecap:round;stroke-linejoin:round;stroke-miterlimit:10;" x1="251.935" y1="161.956" x2="273.722" y2="161.956"/>
				
					<line style="fill:none;stroke:#263238;stroke-linecap:round;stroke-linejoin:round;stroke-miterlimit:10;" x1="219.472" y1="135.625" x2="241.259" y2="135.625"/>
				
					<line style="fill:none;stroke:#263238;stroke-linecap:round;stroke-linejoin:round;stroke-miterlimit:10;" x1="219.472" y1="110.737" x2="241.259" y2="110.737"/>
				
					<line style="fill:none;stroke:#263238;stroke-linecap:round;stroke-linejoin:round;stroke-miterlimit:10;" x1="219.472" y1="102.08" x2="241.259" y2="102.08"/>
				
					<line style="fill:none;stroke:#263238;stroke-linecap:round;stroke-linejoin:round;stroke-miterlimit:10;" x1="251.935" y1="169.322" x2="273.722" y2="169.322"/>
				
					<line style="fill:none;stroke:#263238;stroke-linecap:round;stroke-linejoin:round;stroke-miterlimit:10;" x1="251.935" y1="176.689" x2="273.722" y2="176.689"/>
				
					<line style="fill:none;stroke:#263238;stroke-linecap:round;stroke-linejoin:round;stroke-miterlimit:10;" x1="251.935" y1="184.055" x2="273.722" y2="184.055"/>
				
					<line style="fill:none;stroke:#263238;stroke-linecap:round;stroke-linejoin:round;stroke-miterlimit:10;" x1="251.935" y1="191.421" x2="273.722" y2="191.421"/>
				
					<line style="fill:none;stroke:#263238;stroke-linecap:round;stroke-linejoin:round;stroke-miterlimit:10;" x1="251.935" y1="198.788" x2="273.722" y2="198.788"/>
				
					<line style="fill:none;stroke:#263238;stroke-linecap:round;stroke-linejoin:round;stroke-miterlimit:10;" x1="251.935" y1="206.154" x2="273.722" y2="206.154"/>
				
					<line style="fill:none;stroke:#263238;stroke-linecap:round;stroke-linejoin:round;stroke-miterlimit:10;" x1="251.935" y1="213.52" x2="273.722" y2="213.52"/>
				
					<line style="fill:none;stroke:#263238;stroke-linecap:round;stroke-linejoin:round;stroke-miterlimit:10;" x1="251.935" y1="139.674" x2="266.359" y2="139.674"/>
				
					<rect x="246.034" y="147.224" style="fill:#7677F4;stroke:#263238;stroke-linecap:round;stroke-linejoin:round;stroke-miterlimit:10;" width="35.779" height="9.471"/>
				
					<rect x="217.621" y="117.759" style="fill:#7677F4;stroke:#263238;stroke-linecap:round;stroke-linejoin:round;stroke-miterlimit:10;" width="28.046" height="9.471"/>
				
					<line style="fill:none;stroke:#263238;stroke-linecap:round;stroke-linejoin:round;stroke-miterlimit:10;" x1="285.496" y1="120.39" x2="312.857" y2="120.39"/>
				
					<line style="fill:none;stroke:#263238;stroke-linecap:round;stroke-linejoin:round;stroke-miterlimit:10;" x1="285.496" y1="189.844" x2="312.857" y2="189.844"/>
				<g>
					
						<line style="fill:none;stroke:#263238;stroke-linecap:round;stroke-linejoin:round;stroke-miterlimit:10;" x1="285.496" y1="130.913" x2="300.755" y2="130.913"/>
					
						<line style="fill:none;stroke:#263238;stroke-linecap:round;stroke-linejoin:round;stroke-miterlimit:10;" x1="285.496" y1="138.28" x2="300.755" y2="138.28"/>
					
						<line style="fill:none;stroke:#263238;stroke-linecap:round;stroke-linejoin:round;stroke-miterlimit:10;" x1="285.496" y1="145.646" x2="300.755" y2="145.646"/>
					
						<line style="fill:none;stroke:#263238;stroke-linecap:round;stroke-linejoin:round;stroke-miterlimit:10;" x1="285.496" y1="153.012" x2="300.755" y2="153.012"/>
					
						<line style="fill:none;stroke:#263238;stroke-linecap:round;stroke-linejoin:round;stroke-miterlimit:10;" x1="285.496" y1="160.378" x2="300.755" y2="160.378"/>
					
						<line style="fill:none;stroke:#263238;stroke-linecap:round;stroke-linejoin:round;stroke-miterlimit:10;" x1="285.496" y1="167.745" x2="300.755" y2="167.745"/>
				</g>
				<g>
					
						<line style="fill:none;stroke:#263238;stroke-linecap:round;stroke-linejoin:round;stroke-miterlimit:10;" x1="307.595" y1="130.913" x2="322.854" y2="130.913"/>
					
						<line style="fill:none;stroke:#263238;stroke-linecap:round;stroke-linejoin:round;stroke-miterlimit:10;" x1="307.595" y1="138.28" x2="322.854" y2="138.28"/>
					
						<line style="fill:none;stroke:#263238;stroke-linecap:round;stroke-linejoin:round;stroke-miterlimit:10;" x1="307.595" y1="145.646" x2="322.854" y2="145.646"/>
					
						<line style="fill:none;stroke:#263238;stroke-linecap:round;stroke-linejoin:round;stroke-miterlimit:10;" x1="307.595" y1="153.012" x2="322.854" y2="153.012"/>
					
						<line style="fill:none;stroke:#263238;stroke-linecap:round;stroke-linejoin:round;stroke-miterlimit:10;" x1="307.595" y1="160.378" x2="322.854" y2="160.378"/>
					
						<line style="fill:none;stroke:#263238;stroke-linecap:round;stroke-linejoin:round;stroke-miterlimit:10;" x1="307.595" y1="167.745" x2="322.854" y2="167.745"/>
				</g>
				
					<line style="fill:none;stroke:#263238;stroke-linecap:round;stroke-linejoin:round;stroke-miterlimit:10;" x1="285.496" y1="123.547" x2="324.432" y2="123.547"/>
				
					<rect x="281.813" y="195.105" style="fill:#263238;stroke:#263238;stroke-linecap:round;stroke-linejoin:round;stroke-miterlimit:10;" width="55.774" height="3.157"/>
				<g>
					
						<line style="fill:none;stroke:#FFFFFF;stroke-linecap:round;stroke-linejoin:round;stroke-miterlimit:10;" x1="237.089" y1="86.715" x2="237.089" y2="91.451"/>
					
						<line style="fill:none;stroke:#FFFFFF;stroke-linecap:round;stroke-linejoin:round;stroke-miterlimit:10;" x1="266.729" y1="86.715" x2="266.729" y2="91.451"/>
					
						<line style="fill:none;stroke:#FFFFFF;stroke-linecap:round;stroke-linejoin:round;stroke-miterlimit:10;" x1="296.37" y1="86.715" x2="296.37" y2="91.451"/>
					
						<line style="fill:none;stroke:#FFFFFF;stroke-linecap:round;stroke-linejoin:round;stroke-miterlimit:10;" x1="326.011" y1="86.715" x2="326.011" y2="91.451"/>
				</g>
			</g>
		</g>
	</g>
</g>
</svg>
